<svg width="11" height="11" viewBox="0 0 11 11" fill="none" xmlns="http://www.w3.org/2000/svg">
<g clip-path="url(#clip0_84_332)">
<path d="M9.82041 4.38998C9.82018 4.38975 9.81995 4.38952 9.81972 4.38929L5.70257 0.272285C5.52707 0.0967166 5.29375 0 5.04557 0C4.79739 0 4.56407 0.0966396 4.3885 0.272208L0.273501 4.38713C0.272115 4.38852 0.270729 4.38998 0.269343 4.39136C-0.0910342 4.75382 -0.0904182 5.3419 0.271114 5.70343C0.436287 5.86868 0.654438 5.9644 0.887682 5.97441C0.897154 5.97533 0.906702 5.97579 0.916328 5.97579H1.08042V9.00565C1.08042 9.60521 1.56824 10.093 2.16794 10.093H3.77871C3.94195 10.093 4.0744 9.96065 4.0744 9.79733V7.42192C4.0744 7.14833 4.29694 6.92579 4.57054 6.92579H5.52061C5.7942 6.92579 6.01674 7.14833 6.01674 7.42192V9.79733C6.01674 9.96065 6.14911 10.093 6.31244 10.093H7.9232C8.5229 10.093 9.01072 9.60521 9.01072 9.00565V5.97579H9.16288C9.41098 5.97579 9.64431 5.87915 9.81995 5.70358C10.1819 5.34144 10.182 4.75236 9.82041 4.38998Z" fill="#52BFFF"/>
</g>
<defs>
<clipPath id="clip0_84_332">
<rect width="10.093" height="10.093" fill="white"/>
</clipPath>
</defs>
</svg>
