<svg width="9" height="8" viewBox="0 0 9 8" fill="none" xmlns="http://www.w3.org/2000/svg">
<path d="M1.0622 3.2265C0.929422 2.86786 0.833275 2.50159 0.862272 2.11242C0.880586 1.87282 0.970628 1.66832 1.14613 1.50044C1.3369 1.32036 1.51698 1.13112 1.7047 0.947982C1.94888 0.706852 2.25564 0.708379 2.49982 0.947982C2.6509 1.09602 2.80047 1.2471 2.95003 1.39819C3.09501 1.54318 3.24152 1.68816 3.3865 1.83467C3.64137 2.09258 3.64289 2.39323 3.38803 2.64962C3.20489 2.83276 3.02328 3.01742 2.83709 3.19751C2.78826 3.24482 2.78368 3.2845 2.80962 3.34402C2.93171 3.63704 3.10875 3.898 3.30714 4.14219C3.70699 4.6336 4.15873 5.07008 4.69745 5.40735C4.81344 5.47908 4.94011 5.5325 5.06068 5.59812C5.12325 5.6317 5.16445 5.62101 5.21482 5.56913C5.39643 5.38141 5.58261 5.19675 5.7688 5.01208C6.01298 4.77096 6.31821 4.76943 6.56239 5.01208C6.86152 5.30816 7.15911 5.60575 7.45518 5.90488C7.70394 6.15516 7.70242 6.46192 7.45213 6.71373C7.28273 6.88465 7.10417 7.04643 6.94545 7.22498C6.71348 7.48443 6.42046 7.56989 6.08777 7.55158C5.60245 7.52563 5.1553 7.36386 4.7234 7.15478C3.76499 6.68931 2.94698 6.04375 2.26174 5.2288C1.75506 4.62445 1.3369 3.96821 1.0622 3.2265ZM8.0168 3.77286C8.21319 3.77286 8.37417 3.61316 8.35563 3.41765C8.18719 1.64172 6.76908 0.223605 4.99315 0.0551679C4.79764 0.0366249 4.63794 0.197607 4.63794 0.393994C4.63794 0.590381 4.79785 0.747386 4.9929 0.770317C6.37646 0.932982 7.47782 2.03433 7.64048 3.4179C7.66341 3.61294 7.82042 3.77286 8.0168 3.77286ZM6.29074 3.41979C6.33129 3.61195 6.48657 3.77286 6.68296 3.77286C6.87935 3.77286 7.04132 3.61273 7.01242 3.41848C6.85769 2.37826 6.03254 1.55311 4.99232 1.39837C4.79807 1.36948 4.63794 1.53145 4.63794 1.72784C4.63794 1.92422 4.79885 2.07951 4.99101 2.12005C5.30786 2.18691 5.59875 2.34375 5.8329 2.5779C6.06705 2.81204 6.22389 3.10294 6.29074 3.41979Z" fill="#BED8E8"/>
</svg>
