<svg width="9" height="8" viewBox="0 0 9 8" fill="none" xmlns="http://www.w3.org/2000/svg">
<path d="M4.60719 7.55396C6.67489 7.55396 8.35709 5.87171 8.35709 3.80396C8.35709 1.7362 6.67491 0.0539551 4.60719 0.0539551C2.53947 0.0539551 0.857303 1.7362 0.857303 3.80396C0.857303 4.71427 1.17954 5.57522 1.7701 6.25638L0.936813 7.07871C0.767925 7.2454 0.884917 7.53498 1.12325 7.53614C1.12508 7.53616 4.60537 7.55396 4.60719 7.55396ZM3.01282 2.47676H6.21937C6.36695 2.47676 6.48658 2.5964 6.48658 2.74398C6.48658 2.89156 6.36695 3.0112 6.21937 3.0112H3.01282C2.86524 3.0112 2.74561 2.89156 2.74561 2.74398C2.74561 2.5964 2.86525 2.47676 3.01282 2.47676ZM3.01282 3.54564H6.21937C6.36695 3.54564 6.48658 3.66529 6.48658 3.81286C6.48658 3.96044 6.36695 4.08008 6.21937 4.08008H3.01282C2.86524 4.08008 2.74561 3.96044 2.74561 3.81286C2.74561 3.66529 2.86525 3.54564 3.01282 3.54564ZM2.74561 4.88175C2.74561 4.73417 2.86524 4.61453 3.01282 4.61453H6.21937C6.36695 4.61453 6.48658 4.73417 6.48658 4.88175C6.48658 5.02932 6.36695 5.14897 6.21937 5.14897H3.01282C2.86525 5.14897 2.74561 5.02932 2.74561 4.88175Z" fill="#BED8E8"/>
</svg>
