<svg width="7" height="8" viewBox="0 0 7 8" fill="none" xmlns="http://www.w3.org/2000/svg">
<path d="M3.59619 0.535889C2.58366 0.535889 1.7599 1.35965 1.7599 2.37218C1.7599 3.3847 2.58366 4.20846 3.59619 4.20846C4.60872 4.20846 5.43248 3.3847 5.43248 2.37218C5.43248 1.35965 4.60872 0.535889 3.59619 0.535889Z" fill="#BED8E8"/>
<path d="M5.88088 5.40803C5.37815 4.89757 4.71169 4.61646 4.00425 4.61646H3.18813C2.48071 4.61646 1.81423 4.89757 1.3115 5.40803C0.811224 5.91599 0.535713 6.58649 0.535713 7.29607C0.535713 7.40875 0.627065 7.5001 0.739745 7.5001H6.45264C6.56532 7.5001 6.65667 7.40875 6.65667 7.29607C6.65667 6.58649 6.38116 5.91599 5.88088 5.40803Z" fill="#BED8E8"/>
</svg>
