<svg width="20" height="20" viewBox="0 0 20 20" fill="none" xmlns="http://www.w3.org/2000/svg">
<g clip-path="url(#clip0_9997_5794)">
<path d="M0 10C0 4.47715 4.47715 0 10 0C15.5228 0 20 4.47715 20 10C20 15.5228 15.5228 20 10 20C4.47715 20 0 15.5228 0 10Z" fill="#52BFFF"/>
<path d="M10.023 14.144C8.68702 14.144 7.61502 13.652 6.80702 12.668L7.83902 11.708C8.46302 12.444 9.19902 12.812 10.047 12.812C10.471 12.812 10.819 12.696 11.091 12.464C11.363 12.224 11.499 11.908 11.499 11.516C11.499 11.108 11.323 10.792 10.971 10.568C10.627 10.336 10.159 10.22 9.56702 10.22L8.88302 10.22L8.64302 9.296L10.911 6.884L7.27502 6.884L7.27502 5.6L12.831 5.6L12.831 6.704L10.491 9.104C11.227 9.208 11.823 9.456 12.279 9.848C12.735 10.232 12.963 10.78 12.963 11.492C12.963 12.268 12.687 12.904 12.135 13.4C11.591 13.896 10.887 14.144 10.023 14.144Z" fill="white"/>
</g>
<defs>
<clipPath id="clip0_9997_5794">
<rect width="20" height="20" fill="white"/>
</clipPath>
</defs>
</svg>
