<svg width="20" height="20" viewBox="0 0 20 20" fill="none" xmlns="http://www.w3.org/2000/svg">
<g clip-path="url(#clip0_9997_1814)">
<path d="M0 10C0 4.47715 4.47715 0 10 0C15.5228 0 20 4.47715 20 10C20 15.5228 15.5228 20 10 20C4.47715 20 0 15.5228 0 10Z" fill="#52BFFF"/>
<path d="M6.90831 14L6.90831 12.836L9.80031 10.376C10.3923 9.88 10.8003 9.472 11.0243 9.152C11.2563 8.824 11.3723 8.476 11.3723 8.108C11.3723 7.708 11.2443 7.392 10.9883 7.16C10.7323 6.92 10.4083 6.8 10.0163 6.8C9.64831 6.8 9.31631 6.9 9.02031 7.1C8.73231 7.3 8.41631 7.62 8.07231 8.06L7.02831 7.244C7.46031 6.636 7.90431 6.192 8.36031 5.912C8.82431 5.624 9.41231 5.48 10.1243 5.48C10.9483 5.48 11.6163 5.712 12.1283 6.176C12.6403 6.64 12.8963 7.252 12.8963 8.012C12.8963 8.34 12.8563 8.636 12.7763 8.9C12.6963 9.156 12.5523 9.42 12.3443 9.692C12.1443 9.956 11.9243 10.2 11.6843 10.424C11.4523 10.64 11.1283 10.92 10.7123 11.264L8.98431 12.704L12.9803 12.704L12.9803 14L6.90831 14Z" fill="white"/>
</g>
<defs>
<clipPath id="clip0_9997_1814">
<rect width="20" height="20" fill="white"/>
</clipPath>
</defs>
</svg>
