<svg width="20" height="20" viewBox="0 0 20 20" fill="none" xmlns="http://www.w3.org/2000/svg">
<g clip-path="url(#clip0_9997_964)">
<path d="M0 10C0 4.47715 4.47715 0 10 0C15.5228 0 20 4.47715 20 10C20 15.5228 15.5228 20 10 20C4.47715 20 0 15.5228 0 10Z" fill="#52BFFF"/>
<path d="M9.91558 14.144C8.73958 14.144 7.71158 13.716 6.83158 12.86L7.74358 11.792C8.46358 12.464 9.18358 12.8 9.90358 12.8C10.4076 12.8 10.8116 12.668 11.1156 12.404C11.4196 12.132 11.5716 11.772 11.5716 11.324C11.5716 10.9 11.4076 10.564 11.0796 10.316C10.7596 10.06 10.3436 9.932 9.83158 9.932C9.32758 9.932 8.81158 10.056 8.28358 10.304L7.39558 9.716L7.63558 5.6L12.6516 5.6L12.6516 6.908L8.90758 6.908L8.77558 8.876C9.21558 8.716 9.65958 8.636 10.1076 8.636C10.9636 8.636 11.6636 8.864 12.2076 9.32C12.7516 9.776 13.0236 10.436 13.0236 11.3C13.0236 12.156 12.7356 12.844 12.1596 13.364C11.5916 13.884 10.8436 14.144 9.91558 14.144Z" fill="white"/>
</g>
<defs>
<clipPath id="clip0_9997_964">
<rect width="20" height="20" fill="white"/>
</clipPath>
</defs>
</svg>
