<svg width="20" height="20" viewBox="0 0 20 20" fill="none" xmlns="http://www.w3.org/2000/svg">
<g clip-path="url(#clip0_9997_1608)">
<path d="M0 10C0 4.47715 4.47715 0 10 0C15.5228 0 20 4.47715 20 10C20 15.5228 15.5228 20 10 20C4.47715 20 0 15.5228 0 10Z" fill="#52BFFF"/>
<path d="M10.86 14L10.86 12.116L6.62402 12.116L6.34802 11.06L11.016 5.54L12.276 5.54L12.276 10.904L13.476 10.904L13.476 12.116L12.276 12.116L12.276 14L10.86 14ZM8.10002 10.904L10.86 10.904L10.86 7.58L8.10002 10.904Z" fill="white"/>
</g>
<defs>
<clipPath id="clip0_9997_1608">
<rect width="20" height="20" fill="white"/>
</clipPath>
</defs>
</svg>
