<svg width="93" height="125" viewBox="0 0 93 125" fill="none" xmlns="http://www.w3.org/2000/svg">
<g filter="url(#filter0_d_89_1729)">
<path d="M34.5274 83.2517L35.0059 83.6401L35.4797 83.2459C45.8333 74.6322 51.75 67.0001 51.75 57.871C51.75 48.6857 44.245 41.25 35 41.25C25.755 41.25 18.25 48.6857 18.25 57.871C18.25 66.9922 23.487 74.2915 34.5274 83.2517Z" fill="url(#paint0_linear_89_1729)" stroke="url(#paint1_linear_89_1729)" stroke-width="1.5"/>
<rect width="25.3333" height="25.129" rx="12.5645" transform="matrix(-1 0 0 1 47.666 45.3065)" fill="url(#paint2_linear_89_1729)"/>
<path d="M34.7166 62L34.7166 53.88L32.9526 54.37L32.5886 52.97L35.2206 52.13L36.4246 52.13L36.4246 62L34.7166 62Z" fill="white"/>
</g>
<defs>
<filter id="filter0_d_89_1729" x="-22.5" y="0.5" width="115" height="124.111" filterUnits="userSpaceOnUse" color-interpolation-filters="sRGB">
<feFlood flood-opacity="0" result="BackgroundImageFix"/>
<feColorMatrix in="SourceAlpha" type="matrix" values="0 0 0 0 0 0 0 0 0 0 0 0 0 0 0 0 0 0 127 0" result="hardAlpha"/>
<feOffset/>
<feGaussianBlur stdDeviation="20"/>
<feColorMatrix type="matrix" values="0 0 0 0 1 0 0 0 0 1 0 0 0 0 1 0 0 0 0.5 0"/>
<feBlend mode="normal" in2="BackgroundImageFix" result="effect1_dropShadow_89_1729"/>
<feBlend mode="normal" in="SourceGraphic" in2="effect1_dropShadow_89_1729" result="shape"/>
</filter>
<linearGradient id="paint0_linear_89_1729" x1="59.8421" y1="3.47114" x2="-21.8052" y2="99.1615" gradientUnits="userSpaceOnUse">
<stop stop-color="#B1E2FF"/>
<stop offset="1" stop-color="#68C7FF"/>
</linearGradient>
<linearGradient id="paint1_linear_89_1729" x1="35" y1="42" x2="35" y2="73.7419" gradientUnits="userSpaceOnUse">
<stop stop-color="#BEE7FF"/>
<stop offset="1" stop-color="#52BFFF"/>
</linearGradient>
<linearGradient id="paint2_linear_89_1729" x1="25.3333" y1="28.1048" x2="4.5448" y2="1.15943" gradientUnits="userSpaceOnUse">
<stop offset="0.082217" stop-color="#B1E2FF"/>
<stop offset="1" stop-color="#68C7FF"/>
</linearGradient>
</defs>
</svg>
