<svg width="289" height="90" viewBox="0 0 289 90" fill="none" xmlns="http://www.w3.org/2000/svg">
<path d="M19.9043 70.7877C20.1637 70.8121 20.2026 71.2344 20.3412 71.4306C20.7635 71.3917 20.4652 70.945 20.3266 70.7488C20.8454 70.7975 21.382 71.2142 21.6471 71.7362C21.7403 72.1375 21.2669 71.8837 21.3423 71.917C21.1728 72.6076 22.2226 72.5752 21.8059 73.1118C21.4468 73.3136 21.1031 73.0721 20.8859 73.1564C20.7594 72.8305 21.1396 72.683 21.1307 72.499L20.9224 72.7673C20.8259 72.6797 20.7416 72.4625 20.8292 72.366C20.47 72.5678 20.7408 73.5876 20.4538 74.1364C20.5502 74.2239 20.6889 74.4201 20.8307 74.3026L20.7675 74.1396C21.0723 73.9589 21.1533 74.4898 21.3073 74.2426C21.5213 74.472 21.8107 74.7347 21.6778 75.0362L21.2765 75.1294C21.4062 75.1416 21.5059 74.9154 21.3552 74.8489C21.527 74.9697 20.8631 75.3523 21.3486 75.4764L21.6324 75.2413C21.8464 75.4707 22.2987 75.6701 22.1657 75.9717C22.5459 75.8242 22.1447 75.9174 22.5581 75.6945C22.015 75.9052 22.5435 75.0127 21.9672 75.2989C22.5103 75.0881 22.2087 74.9552 22.6011 74.6779C22.4714 74.6658 22.3295 74.7833 22.4292 74.5572C22.3749 74.5782 22.3539 74.5239 22.2995 74.545C22.2663 74.6204 22.1577 74.6625 22.1034 74.6836C21.8018 74.5507 21.784 74.1826 21.6665 74.0408C21.7329 73.89 21.8172 74.1072 21.9802 74.044L21.7329 73.89C22.0466 73.8932 22.2128 73.5163 22.4147 73.8754L22.4179 73.5617C22.593 73.3688 22.6384 73.1637 22.5209 73.0219C22.5874 72.8711 22.2437 72.6295 22.4366 72.8046L22.3223 72.349L22.3766 72.328C22.4463 71.8635 21.943 71.3714 22.5858 70.9345C22.5226 70.7716 22.4594 70.6087 22.6134 70.3614L22.8517 70.3314C22.7674 70.1142 23.2141 69.8159 22.9668 69.6619C23.6818 69.5719 23.3114 68.7783 23.4986 68.4557L23.1639 68.3981C23.2636 68.172 23.2336 67.9337 23.1825 67.641L22.9021 67.5624C22.7213 67.2576 23.2976 66.9715 23.3341 66.5824C23.4306 66.6699 23.3974 66.7453 23.2887 66.7875C24.0702 66.5467 23.1599 65.6502 23.7573 65.4184C23.6941 65.2554 23.7484 65.2343 23.857 65.1922C23.857 65.1922 23.857 65.1922 23.8781 65.2465C23.8781 65.2465 23.8781 65.2465 23.9113 65.1711C23.9657 65.1501 24.02 65.129 24.1286 65.0868C24.0743 65.1079 23.9657 65.1501 23.9657 65.1501C23.9989 65.0747 24.0111 64.945 23.9478 64.782L24.2826 64.8396C24.4456 64.7764 24.1651 64.6977 23.96 64.6523C23.9389 64.598 23.8968 64.4894 23.8757 64.4351C24.4156 64.5381 23.8579 64.0671 24.3767 64.1157C24.1838 63.9406 29.3313 54.5413 28.8368 54.2333C28.9122 54.2665 28.9665 54.2454 28.9333 54.3208C29.0209 54.2243 29.1627 54.1068 29.0995 53.9439L29.5097 54.0347L29.136 53.5548C29.4286 53.5037 29.6126 53.4948 29.7934 53.7996C29.5616 53.2022 29.7545 53.3773 29.5437 52.8342L29.7699 52.9339C29.8364 52.7831 29.5802 52.4451 29.8396 52.4694C30.446 52.4216 30.5676 51.1246 31.3944 50.6788C30.6827 50.4551 31.8832 50.4891 31.3888 50.1811C31.5939 50.2265 31.7025 50.1843 31.7657 50.3473C31.8354 49.8828 32.2999 49.9525 32.0559 49.4848C32.261 49.5302 32.2489 49.6599 32.3242 49.6931C32.3032 49.6388 32.261 49.5302 32.3697 49.488C32.4994 49.5002 32.4872 49.6299 32.5083 49.6842C32.6744 49.3073 32.2343 48.9782 31.8152 48.7034C32.1078 48.6523 32.1411 48.5769 31.9393 48.2178C32.1443 48.2632 32.3283 48.2543 32.2286 48.4805C32.3162 48.384 32.8626 47.8595 32.5189 47.618C32.6486 47.6301 32.6397 47.4461 32.6186 47.3918C32.8269 47.1235 32.8269 47.1235 32.9599 46.822L32.8512 46.8641C32.5197 46.4928 32.9299 46.5836 33.0296 46.3575L33.0507 46.4118C33.7024 46.1589 33.0539 46.0981 33.7267 45.8995L33.4795 45.7455C32.9972 45.3077 34.098 45.568 34.1134 45.1246L33.9083 45.0792C33.8573 44.7865 38.557 40.8582 38.7742 40.7739C38.8496 40.8071 38.8164 40.8825 38.7831 40.9579C39.3684 40.8557 38.4727 40.6409 38.6599 40.3183C38.8861 40.418 39.0125 40.7439 39.2087 40.6053C39.4138 40.6507 39.1431 39.6309 39.6619 39.6796C39.5111 39.6131 39.306 39.5677 39.3514 39.3626C39.4511 39.1364 40.2715 39.3181 40.0607 38.7749C40.1361 38.8082 40.1361 38.8082 40.2115 38.8414C40.2569 38.6363 40.4774 38.2383 40.372 37.9668C41.2523 38.625 40.8828 36.7063 41.5669 37.5031L41.9714 37.0962L42.0136 37.2048C42.3727 37.003 42.2673 36.7315 42.2373 36.4931C42.367 36.5053 42.3548 36.635 42.3548 36.635C42.919 36.4786 53.667 28.6639 53.7278 28.0155L53.9418 28.2449C53.9118 28.0065 54.9162 28.1792 55.1278 27.5972C55.1489 27.6515 55.1699 27.7058 55.191 27.7602C55.4901 27.0817 56.8682 27.7343 56.501 26.627L56.7004 26.1746C56.2116 26.3643 56.5108 25.6858 56.2303 25.6072C56.3511 25.4354 56.8788 25.668 56.6826 25.8066L56.6072 25.7734C56.839 26.3708 57.3011 25.6291 57.4486 26.0093C58.363 25.467 59.4249 25.305 60.2939 24.9678L60.0167 24.5754L60.3426 24.449C60.4933 24.5155 60.5776 24.7327 60.3604 24.817C60.5744 25.0464 60.6563 24.4522 60.6141 24.3436C61.1118 24.3379 71.7117 21.4229 71.8747 21.3597L72.0165 21.2422L71.9412 21.2089C72.0409 20.9828 71.9566 20.7655 72.2281 20.6602C72.4121 20.6513 72.4421 20.8896 72.4964 20.8685C72.5175 20.9228 72.5175 20.9228 72.6051 20.8264L73.0063 20.7332L72.6959 20.4162C72.7956 20.19 62.0473 23.85 61.7158 23.4787C62.2402 24.0251 74.3374 19.6543 74.5846 19.8083C74.7719 19.4857 74.9891 19.4014 75.3361 19.3293C75.2607 19.296 75.0921 18.8615 75.3515 18.8859C75.5047 19.7638 75.9335 19.0974 76.3282 19.6316C76.0178 19.3147 77.0886 19.3366 76.6396 18.8235C76.8989 18.8478 76.766 19.1493 76.9378 19.2701C77.3756 18.7878 78.2048 19.1534 78.8566 18.9006C78.8144 18.7919 78.6969 18.6501 78.7966 18.4239L79.3 18.916C79.4418 18.7984 79.2311 18.2553 79.5959 18.5512C79.5537 18.4426 79.4573 18.355 79.5448 18.2586C80.2687 18.3526 80.9537 18.0244 81.6054 17.7715C82.3114 17.4975 82.9843 17.2989 83.8257 17.5348C83.5784 17.3808 83.6871 17.3387 83.85 17.2754C83.7203 17.2633 83.7446 17.0039 83.6814 16.841L84.372 17.0104C84.3331 16.5881 84.9484 16.7243 84.8552 16.323L84.7133 16.4405C84.762 15.9218 83.9871 15.5351 83.7763 14.9919C83.6944 15.5861 82.8295 14.4845 82.6901 15.4134C82.5393 15.347 82.7355 15.2083 82.6179 15.0665C82.5936 15.3259 82.5061 15.4223 82.1924 15.4191L82.2256 15.3437C81.5739 15.5966 81.218 15.4847 80.4276 15.5414L80.5873 15.7919C80.4033 15.8008 80.3612 15.6922 80.2315 15.68C80.1828 16.1988 80.687 15.5658 80.6595 16.1389C80.2647 15.6047 79.4768 16.4728 79.1485 15.7878C78.9102 15.8178 79.3293 16.0926 79.0577 16.198L78.9402 16.0561L78.9158 16.3155C78.7318 16.3244 78.5932 16.1282 78.53 15.9653C78.5843 15.9442 78.6175 15.8689 78.6719 15.8478C78.4246 15.6938 78.0744 16.0796 77.999 16.0464L78.2795 16.125C77.6156 16.5076 76.6745 16.4978 76.0738 17.0434L76.1913 17.1852C75.7325 17.6132 64.677 20.6425 64.1218 20.9829L64.1007 20.9286C64.0342 21.0794 63.8923 21.1969 63.7294 21.2601C63.8291 21.034 63.3857 21.0186 63.4854 20.7924C62.9723 21.2415 63.2771 21.0607 63.0323 21.7181L62.8937 21.5219C62.815 21.8024 62.8361 21.8567 62.5856 22.0164C62.7939 21.7481 62.2962 21.7538 62.4624 21.3768C61.6753 21.1198 61.7288 22.2239 61.1622 21.5689C61.1224 22.2717 61.7985 21.7594 61.732 21.9102C61.9249 22.0853 61.6834 22.429 61.4451 22.459C61.2821 22.5222 60.8031 21.7707 60.3143 21.9604C60.3686 21.9393 60.3475 21.885 60.4018 21.8639C60.1757 21.7642 60.1059 22.2287 59.8044 22.0958C59.8433 22.5181 59.5328 22.2011 59.6682 22.711L60.0605 22.4338C59.8522 22.7021 59.9 23.3084 59.3601 23.2055C59.318 23.0968 59.4388 22.925 59.4509 22.7953C59.2791 22.6745 59.2758 22.9882 59.0497 22.8885C58.86 22.3997 59.5507 22.5691 59.6747 22.0836C59.4275 21.9296 59.3334 22.6534 59.2313 22.0682C59.3212 22.7831 58.7214 22.2035 58.6063 22.8731L58.5009 22.6015C58.4677 22.6769 58.4223 22.882 58.368 22.9031L58.3834 22.4597C58.2926 22.8698 57.756 22.4532 57.6019 22.7004C58.124 22.4353 57.8913 22.963 58.1929 23.096C57.764 23.7623 57.4844 22.5585 56.8626 23.0497C56.9502 22.9533 57.306 23.0652 57.2396 23.2159C57.0556 23.2248 56.8505 23.1794 56.6997 23.113C56.253 23.4113 56.9137 23.3424 56.8351 23.6228C56.4914 23.3813 56.681 23.8701 56.527 24.1173L56.3673 23.8668C55.7277 23.99 56.5659 24.5396 55.9596 24.5874L55.9539 24.0897L55.7999 24.337L55.6734 24.0111C55.5073 24.388 55.4319 24.3548 55.106 24.4812C55.2989 24.6563 55.371 25.0033 55.1749 25.1419C54.8944 25.0632 55.1238 24.8492 54.819 25.03C54.789 24.7917 54.759 24.5534 55.0063 24.7074C54.9641 24.5988 54.9763 24.4691 54.9552 24.4148C54.6748 24.3361 54.4875 24.6587 54.3789 24.7009C54.4332 24.6798 54.4875 24.6587 54.5629 24.692C54.5629 24.692 54.4964 24.8427 54.4299 24.9935C54.3635 25.1443 54.3181 25.3494 54.3181 25.3494C54.1673 25.2829 54.1794 25.1532 54.2127 25.0778C54.1251 25.1743 54.134 25.3583 54.0465 25.4547C53.9622 25.2375 53.8025 24.987 53.9022 24.7608L53.6153 25.3096C53.5188 25.2221 53.2051 25.2188 53.2172 25.0891C52.8703 25.1613 52.9059 25.8973 52.4836 25.9362C52.5047 25.9905 52.4714 26.0659 52.4382 26.1413C52.1123 26.2677 40.9331 33.9372 40.7758 34.4982L40.3235 34.2987C40.1152 34.567 40.9266 34.5646 40.5975 35.0048C40.3559 35.3485 40.2538 34.7632 40.0698 34.7721C40.0665 35.0858 40.0933 35.6379 39.5745 35.5892C39.5866 35.4595 39.7163 35.4717 39.7828 35.3209L39.3937 35.2844C39.367 34.7324 39.6596 34.6813 39.2495 34.5905C39.5056 34.9285 39.3305 35.1215 39.1554 35.3144C38.9803 35.5073 38.8052 35.7002 39.0824 36.0926L38.823 36.0683C38.8773 36.0472 38.8563 35.9929 38.9106 35.9718C38.3918 35.9231 39.1635 36.6235 38.75 36.8464C38.5871 36.9097 38.4031 36.9186 38.3942 36.7346L38.3034 37.1447C38.1948 37.1869 38.1526 37.0783 38.1859 37.0029L37.8567 37.443C37.9199 37.606 37.9499 37.8443 37.9588 38.0283C37.7748 38.0372 37.9167 37.9197 37.8413 37.8864L37.8048 38.2755C37.5243 38.1969 37.5276 37.8832 37.7238 37.7446C36.8945 37.379 37.7205 38.0583 36.9512 38.1693L37.0842 37.8678C36.5776 37.6894 36.5532 37.9488 36.1309 37.9877C36.336 38.0331 37.1474 38.0307 37.1109 38.4198C37.0023 38.4619 36.8937 38.5041 36.9237 38.7424C36.6554 38.5341 36.61 38.7392 36.4892 38.911L36.1998 38.6483C36.1211 38.9288 32.6487 43.4433 32.733 43.6606C32.5579 43.8535 32.2353 43.6662 32.0091 43.5665C31.6922 43.877 32.6033 43.6484 32.3496 44.1218C32.0448 44.3026 31.9872 44.6373 31.9718 45.0807C31.7002 45.1861 31.7789 44.9056 31.6492 44.8935L31.7967 45.2737C31.7424 45.2947 31.667 45.2615 31.6459 45.2072C31.6759 45.4455 31.9896 45.4487 31.911 45.7292C32.2214 46.0462 31.012 45.8281 31.2981 46.4044C31.1684 46.3923 31.1052 46.2293 30.9544 46.1629C31.0022 46.7692 30.9601 46.6606 31.1165 47.2248L30.7363 47.3723C31.1587 47.3334 31.2729 47.789 31.4205 48.1692C31.6045 48.1602 31.7342 48.1724 31.8096 48.2056L31.7941 48.649C31.7398 48.6701 31.6223 48.5283 31.5048 48.3864C31.5258 48.4407 31.5469 48.495 31.5469 48.495C31.3086 48.525 31.17 48.3288 31.0314 48.1327C31.1611 48.1448 31.2154 48.1237 31.3451 48.1359C31.1854 47.8854 30.9925 47.7103 30.7663 47.6106C30.7874 47.6649 30.8085 47.7192 30.7752 47.7946C30.7542 47.7403 30.6788 47.7071 30.6577 47.6528C30.6034 47.6738 30.6788 47.7071 30.7209 47.8157L30.2897 47.6706L30.4615 47.7914L29.9062 48.1318C30.1381 48.7292 30.5539 49.3178 30.3844 50.0084C30.1494 49.7247 29.89 49.7003 29.5674 49.5131C30.0318 49.5828 29.6703 48.9732 29.8997 48.7592C29.7579 48.8768 29.6403 48.7349 29.6193 48.6806L29.6338 49.3623C29.3655 49.154 29.3744 49.338 29.1572 49.4223C29.7935 49.6128 29.3136 49.9865 29.3858 50.3334C29.1596 50.2337 29.0421 50.0918 29.1961 49.8446C28.5897 49.8924 29.6751 50.5961 29.1442 50.6771C29.1774 50.6017 29.2317 50.5807 29.1353 50.4931C29.2196 50.7104 28.9026 51.0208 28.764 50.8246L28.7972 50.7492C28.5014 51.114 28.1025 52.0186 28.597 52.3267C28.5216 52.2934 28.0271 51.9854 27.9306 51.8979C27.9306 51.8979 28.2622 52.2691 28.6148 52.6947C28.9463 53.066 29.2778 53.4373 29.2778 53.4373C28.8588 53.1624 27.7247 52.9776 27.6647 52.5009C27.5772 52.5974 27.4143 52.6606 27.4653 52.9533C27.5739 52.9111 28.1892 53.0473 28.177 53.177C27.5707 53.2248 22.9363 62.1751 22.3721 62.3315C22.535 62.2683 23.126 62.6639 23.0595 62.8146C22.963 62.7271 22.381 62.5155 22.3599 62.4612L22.8722 63.1373C22.809 62.9743 22.3234 62.8503 22.0851 62.8803C22.2148 62.8924 21.9189 63.2572 21.9611 63.3658L22.1783 63.2815C21.8492 63.7217 22.9378 64.1116 22.7384 64.5639C22.6209 64.4221 21.9213 64.0686 21.7673 64.3159C22.0567 64.5785 23.2596 65.424 23.4493 65.9128L23.211 65.9428L23.3585 66.323C22.8972 65.9395 21.9659 64.9887 21.6133 64.5631C21.4171 64.7017 21.3539 64.5388 21.2752 64.8192C21.0369 64.8492 21.0402 64.5355 21.0734 64.4601L20.7532 65.0843C21.1634 65.1751 21.0061 65.736 21.3409 65.7936L21.1334 64.9368C21.5646 65.0819 22.1855 65.7158 21.9861 66.1681C21.7689 66.2524 21.2323 65.8357 21.1026 65.8236C21.199 65.9111 21.2379 66.3335 21.1293 66.3756L20.9696 66.1251C20.7402 66.3391 21.3854 66.7136 20.8966 66.9033C20.8091 66.9998 20.2781 67.0808 20.5043 67.1805C21.0352 67.0995 22.5673 67.5048 22.8899 67.6921C22.8356 67.7132 22.3014 68.1079 22.0087 68.159C21.6075 68.2522 21.1373 67.6847 20.7904 67.7569C20.9201 67.769 21.0376 67.9109 21.0587 67.9652C20.9168 68.0827 20.7028 67.8533 20.7328 68.0917C21.1641 68.2368 20.6088 68.5772 21.0555 68.2789C21.1065 68.5716 20.9014 68.5261 20.8771 68.7855C21.1697 68.7345 21.8028 69.2387 21.8328 69.477C21.7031 69.4649 21.5734 69.4527 21.5191 69.4738C21.395 69.9593 21.1656 70.1733 21.0959 70.6378C20.9873 70.6799 20.8122 70.8729 20.6403 70.7521C20.7368 70.8396 20.8333 70.9272 20.8211 71.0569C19.9975 71.189 20.4142 70.6524 19.9043 70.7877ZM22.2493 73.1272C22.3701 72.9554 22.3369 73.0308 22.2493 73.1272V73.1272ZM72.4875 20.6845L72.4121 20.6513C72.4786 20.5005 72.5208 20.6091 72.4875 20.6845ZM36.918 38.2447C36.9302 38.115 36.9002 37.8767 37.051 37.9431C37.3071 38.2812 37.102 38.2358 36.918 38.2447ZM30.5247 47.9543C30.4915 48.0297 30.4583 48.1051 30.3496 48.1472C30.2532 48.0597 30.3407 47.9632 30.5247 47.9543Z" fill="#CBECFF"/>
<path d="M25.4042 85.4873C25.5306 85.8132 25.5817 86.1058 25.6449 86.2687C25.6027 86.1601 25.5517 85.8675 25.6149 86.0304C25.6992 86.2477 25.687 86.3774 25.7713 86.5946C25.8078 86.2055 25.3863 85.1193 25.0402 84.0663C25.221 84.3711 25.1999 84.3168 25.0856 83.8612L25.14 83.8401C25.2032 84.0031 25.2875 84.2203 25.2964 84.4043C25.3507 84.3832 25.5679 84.2989 25.2186 83.5597C25.2818 83.7226 25.2729 83.5386 25.2308 83.43L25.4358 83.4754L25.2308 83.43L25.2097 83.3756C25.1886 83.3213 25.2429 83.3003 25.2429 83.3003C25.2429 83.3003 25.2972 83.2792 25.3183 83.3335C25.3183 83.3335 25.264 83.3546 25.2429 83.3003L25.2762 83.2249C25.3305 83.2038 25.4059 83.237 25.4812 83.2703L25.2762 83.2249L25.2218 83.246C25.2218 83.246 25.2008 83.1916 25.234 83.1162L25.1586 83.083C25.1376 83.0287 25.0954 82.9201 25.0743 82.8658C25.1286 82.8447 25.1497 82.899 25.1497 82.899C25.1076 82.7904 25.3005 82.9655 25.4634 82.9023C25.5388 82.9355 25.5388 82.9355 25.5388 82.9355C25.5931 82.9144 25.5931 82.9144 25.6474 82.8933C25.5931 82.9144 25.5931 82.9144 25.5931 82.9144C25.5388 82.9355 25.5177 82.8812 25.4634 82.9023C25.5177 82.8812 25.5388 82.9355 25.5931 82.9144L25.6474 82.8933L25.6385 82.7093C25.5842 82.7304 25.5842 82.7304 25.6053 82.7847C25.4002 82.7393 25.2705 82.7272 25.1197 82.6607C25.0987 82.6064 25.0776 82.5521 25.0565 82.4977C25.2405 82.4888 25.4456 82.5342 25.6296 82.5253C25.5542 82.4921 25.4245 82.4799 25.3491 82.4467C25.3824 82.3713 25.2227 82.1208 25.4699 82.2748L25.4489 82.2205C25.5996 82.287 25.675 82.3202 25.6207 82.3413C26.0098 82.3778 25.5453 82.3081 26.0641 82.3567C25.491 82.3292 26.1306 82.206 25.5032 82.1995C25.9466 82.2149 25.8169 82.2027 26.0552 82.1727C26.1306 82.206 26.1517 82.2603 26.206 82.2392C26.2814 82.2724 26.2692 82.4021 26.3113 82.5108C26.5164 82.5562 26.3989 82.4143 26.2392 82.1638C26.2181 82.1095 26.1427 82.0763 26.1217 82.022C26.2514 82.0341 26.176 82.0009 26.1006 81.9676C26.0795 81.9133 26.0795 81.9133 26.0584 81.859L26.1128 81.8379C26.2514 82.0341 26.411 82.2846 26.4986 82.1881C26.574 82.2214 26.4475 81.8955 26.3422 81.6239C26.3 81.5153 26.2579 81.4067 26.2368 81.3524C26.3665 81.3646 26.4208 81.3435 26.2157 81.2981C26.1947 81.2438 26.2279 81.1684 26.3243 81.2559L26.3033 81.2016L26.3576 81.1805C26.2822 81.1473 26.6291 81.0752 26.3697 81.0508C27.0393 81.166 26.5448 80.8579 26.7078 80.7947L26.373 80.7371C26.4062 80.6618 26.3309 80.6285 26.2555 80.5953C26.2344 80.541 26.1922 80.4323 26.0958 80.3448C26.1712 80.378 26.1712 80.378 26.2466 80.4113L26.2255 80.357C26.7232 80.3513 25.7853 80.0278 26.283 80.0222C26.2077 79.9889 26.2077 79.9889 26.3163 79.9468C26.3706 79.9257 26.446 79.959 26.5003 79.9379C26.4249 79.9046 26.3706 79.9257 26.3163 79.9468C26.3163 79.9468 26.2952 79.8925 26.2198 79.8592L26.5546 79.9168C26.6843 79.929 26.4038 79.8503 26.1987 79.8049C26.1234 79.7717 26.1023 79.7174 26.048 79.7385C26.1988 79.8049 26.2531 79.7839 26.232 79.7295C26.2863 79.7085 26.2863 79.7085 26.2863 79.7085C26.2863 79.7085 26.3617 79.7417 26.416 79.7206C26.3406 79.6874 26.3406 79.6874 26.2652 79.6542C26.2441 79.5998 26.202 79.4912 26.1599 79.3826C26.1388 79.3283 26.1177 79.274 26.1177 79.274C26.1931 79.3072 26.2685 79.3405 26.3439 79.3737C26.1931 79.3072 26.1177 79.274 26.0966 79.2197C26.0545 79.111 26.0877 79.0357 26.4103 79.2229L26.3925 78.8549L26.4679 78.8881C26.5011 78.8127 26.459 78.7041 26.4379 78.6498L26.4922 78.6287C26.4379 78.6498 26.4168 78.5955 26.4168 78.5955C26.4168 78.5955 26.3958 78.5412 26.3415 78.5623C26.4712 78.5744 26.5255 78.5534 26.245 78.4747C26.4501 78.5201 26.5044 78.499 26.6552 78.5655C26.4833 78.4447 26.9478 78.5145 26.4955 78.315C26.7006 78.3604 26.7216 78.4147 26.8513 78.4269C26.8303 78.3726 26.7006 78.3604 26.8303 78.3726C26.96 78.3848 26.981 78.4391 27.0564 78.4723C27.0353 78.418 26.8092 78.3183 26.4533 78.2064C26.4866 78.131 26.4655 78.0767 26.3901 78.0435C26.4444 78.0224 26.532 77.9259 26.2515 77.8473C26.3269 77.8805 26.3058 77.8262 26.3058 77.8262L26.4355 77.8384C26.2847 77.7719 27.0119 77.5523 26.6471 77.2564C26.7014 77.2353 26.7225 77.2896 26.7979 77.3229C26.7768 77.2685 26.7557 77.2142 26.7557 77.2142C26.9608 77.2596 27.1448 77.2507 27.1448 77.2507C27.1991 77.2296 27.2202 77.284 27.2956 77.3172C27.739 77.3326 26.8854 77.2264 26.8433 77.1178C27.0484 77.1632 27.4042 77.275 27.4585 77.254C27.6425 77.2451 26.8133 76.8794 27.2235 76.9703C27.1692 76.9913 27.1481 76.937 27.0938 76.9581C27.127 76.8827 27.127 76.8827 27.0305 76.7951C27.0848 76.7741 27.0849 76.7741 26.913 76.6533C26.9673 76.6322 26.9884 76.6865 27.0427 76.6655C26.9462 76.5779 26.8498 76.4904 26.6026 76.3363C27.649 76.6176 26.1956 75.9318 27.1124 76.201L27.1246 76.0713L27.2 76.1045C27.2875 76.0081 27.0824 75.9627 26.8563 75.8629C26.9106 75.8419 27.0071 75.9294 27.0614 75.9083C27.2786 75.824 27.2243 75.8451 26.956 75.6368C26.956 75.6368 26.956 75.6368 27.0103 75.6157L27.1611 75.6822C27.0103 75.6157 27.7131 75.6554 27.3694 75.4139C27.3694 75.4139 27.4448 75.4471 27.5202 75.4804C27.1765 75.2388 28.4946 75.4147 27.3516 75.0459L27.1044 74.8918C27.0501 74.9129 26.9957 74.934 26.9204 74.9007C27.0501 74.9129 27.3094 74.9372 27.2762 75.0126C27.4602 75.0037 27.3095 74.9372 27.1376 74.8165C27.1919 74.7954 27.1708 74.7411 27.3005 74.7532C27.4513 74.8197 27.5478 74.9073 27.5478 74.9073L27.5056 74.7986L27.4513 74.8197C27.4513 74.8197 27.4513 74.8197 27.4302 74.7654C27.4546 74.506 27.8558 74.4128 27.9555 74.1866L27.47 74.0626L27.5032 73.9872C27.6329 73.9994 27.8591 74.0991 27.8048 74.1202C28.0642 74.1445 27.6118 73.9451 27.5365 73.9118C27.7748 73.8818 28.0431 74.0902 28.0974 74.0691L28.0763 74.0148L28.022 74.0359C27.8502 73.9151 27.6451 73.8697 27.6994 73.8486C27.808 73.8065 27.9799 73.9272 28.0342 73.9062C28.0885 73.8851 28.0342 73.9062 28.0342 73.9062L28.1217 73.8097L27.7326 73.7732C27.5819 73.7067 27.7659 73.6978 27.3557 73.607C27.9499 73.6889 27.6727 73.2966 27.8777 73.342C27.6305 73.1879 27.6638 73.1126 27.7181 73.0915C27.6638 73.1126 27.5884 73.0793 27.513 73.0461L27.5673 73.025C28.0528 73.149 27.7845 72.9407 28.3244 73.0437C27.9142 72.9529 28.2401 72.8264 27.7756 72.7567C27.9053 72.7689 28.0561 72.8353 28.2612 72.8807C27.9929 72.6724 28.5449 72.6457 28.4817 72.4827C28.4063 72.4495 28.2012 72.4041 28.0504 72.3376L28.5903 72.4406C28.5692 72.3863 27.954 72.2501 28.3431 72.2866C28.2888 72.3076 28.2134 72.2744 28.1923 72.2201C28.2466 72.199 28.2798 72.1236 28.3131 72.0483C28.3463 71.9729 28.3253 71.9185 28.3585 71.8432L28.4882 71.8553C28.4882 71.8553 28.4128 71.8221 28.3163 71.7345C28.3074 71.5505 28.2985 71.3665 28.9259 71.373C28.7209 71.3276 28.7209 71.3276 28.6998 71.2733C28.6455 71.2944 28.4947 71.2279 28.3439 71.1614L28.7119 71.1436C28.3561 71.0317 28.6487 70.9807 28.4226 70.881C28.4558 70.8056 28.4558 70.8056 28.489 70.7302C28.5677 70.4497 28.7217 70.2025 29.2948 70.2301C29.0897 70.1847 29.0686 70.1304 29.1019 70.055C29.0476 70.076 28.8546 69.901 28.7039 69.8345L29.2016 69.8288C28.8579 69.5872 29.3013 69.6027 28.9576 69.3611L28.9998 69.4697C28.6139 69.1195 28.0197 69.0376 27.4499 68.6963C27.8568 69.1008 26.5963 68.5901 27.1962 69.1697C27.0665 69.1576 27.0243 69.0489 26.8735 68.9825C27.0665 69.1576 27.1086 69.2662 26.9246 69.2751L26.8492 69.2419C26.7163 69.5434 26.4779 69.5734 26.1399 69.8295L26.4415 69.9625C26.3328 70.0046 26.2574 69.9714 26.2031 69.9925C26.5679 70.2883 26.3239 69.8206 26.743 70.0954C26.1067 69.9049 26.4893 70.5688 25.8529 70.3783C25.7865 70.5291 26.2088 70.4902 26.1212 70.5866L25.9162 70.5412L26.1423 70.6409C26.1091 70.7163 25.8286 70.6377 25.6778 70.5712C25.6778 70.5712 25.6568 70.5169 25.6357 70.4626C25.3974 70.4926 25.5781 70.7974 25.5027 70.7641L25.6657 70.7009C25.6957 70.9392 25.5749 71.1111 25.4752 71.3372C25.463 71.4669 25.4508 71.5966 25.5351 71.8139L25.6648 71.8261C25.6859 71.8804 25.707 71.9347 25.728 71.989C25.6948 72.0644 25.4897 72.019 25.5197 72.2573L25.4986 72.203C25.574 72.2362 25.5951 72.2905 25.6162 72.3448C25.5619 72.3659 25.5408 72.3116 25.4865 72.3327C25.5619 72.3659 25.5829 72.4202 25.5829 72.4202L25.604 72.4745C25.4322 72.3538 25.236 72.4924 25.1185 72.3505C25.2781 72.601 25.2781 72.601 25.5254 72.755C25.5464 72.8093 25.6218 72.8426 25.6429 72.8969L25.5132 72.8847L25.5886 72.9179C25.5343 72.939 25.4589 72.9058 25.3835 72.8725C25.5343 72.939 25.6097 72.9723 25.6851 73.0055C25.7604 73.0387 25.7815 73.093 25.8026 73.1474C25.6729 73.1352 25.5975 73.102 25.5432 73.123C25.4678 73.0898 25.3381 73.0776 25.2416 72.9901C24.949 73.0411 25.0665 73.183 25.1087 73.2916L25.0333 73.2584L25.1087 73.2916C25.1508 73.4002 25.2262 73.4335 24.9125 73.4302C24.9125 73.4302 24.8582 73.4513 24.8371 73.397C24.9125 73.4302 24.9125 73.4302 24.9879 73.4635C25.009 73.5178 24.6199 73.4813 24.7707 73.5478C24.7828 73.4181 25.1265 73.6596 25.3648 73.6297C25.3859 73.684 25.4402 73.6629 25.4402 73.6629C25.3648 73.6296 25.2562 73.6718 25.1808 73.6386C24.9214 73.6142 24.641 73.5356 24.6831 73.6442C24.662 73.5899 24.8671 73.6353 24.9968 73.6475L24.9425 73.6686C24.8882 73.6896 24.7585 73.6775 24.6288 73.6653C24.6499 73.7196 24.7253 73.7528 24.7796 73.7318C24.8006 73.7861 24.8971 73.8736 24.7342 73.9369C24.8849 74.0033 24.906 74.0576 24.906 74.0576L24.7552 73.9912C24.9814 74.0909 24.9271 74.112 24.8185 74.1541C24.7974 74.0998 24.7763 74.0455 24.6799 73.9579C24.4415 73.9879 24.9903 74.2749 24.4837 74.0965C24.5591 74.1298 24.6345 74.163 24.7098 74.1963C24.5258 74.2052 24.6766 74.2716 24.6434 74.347L24.6977 74.3259L24.7188 74.3803C24.6644 74.4013 24.6312 74.4767 24.7277 74.5643C24.5769 74.4978 24.4472 74.4856 24.3507 74.3981L24.5437 74.5732L24.4893 74.5943C24.4893 74.5943 24.4893 74.5943 24.5104 74.6486C24.435 74.6153 24.3807 74.6364 24.251 74.6242C24.1967 74.6453 24.1756 74.591 24.1213 74.6121C24.067 74.6332 24.1635 74.7207 24.2599 74.8082C24.2056 74.8293 24.1513 74.8504 24.097 74.8715L24.0216 74.8382C24.0216 74.8382 24.0427 74.8925 24.097 74.8715C24.0427 74.8925 23.9884 74.9136 24.0638 74.9469C24.097 74.8715 24.097 74.8715 24.1513 74.8504C24.2267 74.8836 24.281 74.8626 24.3021 74.9169L24.1513 74.8504C24.2056 74.8293 24.281 74.8626 24.3564 74.8958C24.3564 74.8958 24.3564 74.8958 24.3021 74.9169C24.3775 74.9501 24.3775 74.9501 24.3985 75.0044C24.3442 75.0255 24.1602 75.0344 24.2024 75.143C24.0727 75.1309 24.0184 75.1519 23.964 75.173L23.8887 75.1398C23.8887 75.1398 23.9097 75.1941 23.964 75.173C23.9097 75.1941 23.9308 75.2484 23.8976 75.3238C23.8765 75.2695 23.9851 75.2273 24.1148 75.2395C24.1148 75.2395 24.1691 75.2184 24.1902 75.2727L24.2656 75.306C24.2113 75.327 24.2113 75.327 24.157 75.3481C24.1027 75.3692 23.994 75.4113 23.9186 75.3781C23.7679 75.3116 23.8222 75.2905 23.5417 75.2119C23.8222 75.2905 23.8976 75.3238 23.9186 75.3781C23.9186 75.3781 23.9186 75.3781 23.9397 75.4324C23.9608 75.4867 23.8732 75.5832 24.3045 75.7283L24.2291 75.6951L24.208 75.6407C24.0029 75.5953 24.1537 75.6618 24.3045 75.7283C24.3256 75.7826 24.5306 75.828 24.6603 75.8402L24.6814 75.8945C24.6271 75.9156 24.4974 75.9034 24.422 75.8702L24.3466 75.8369L24.4642 75.9788L24.1083 75.8669C24.2802 75.9877 24.3012 76.042 24.2469 76.0631C24.1172 76.0509 24.1926 76.0841 24.1926 76.0841C24.1926 76.0841 24.1383 76.1052 24.1594 76.1595C24.2137 76.1385 24.2891 76.1717 24.3645 76.2049C24.3645 76.2049 24.3312 76.2803 24.2015 76.2682L24.1051 76.1806C23.6195 76.0566 23.7914 76.1774 23.4776 76.1741C23.553 76.2073 23.8124 76.2317 24.0718 76.256C23.9632 76.2981 23.93 76.3735 23.951 76.4278L23.8757 76.3946C23.8757 76.3946 23.8967 76.4489 23.951 76.4278C23.9721 76.4822 23.9721 76.4822 23.9721 76.4822L24.0264 76.4611L24.1018 76.4943L24.2737 76.6151C24.144 76.6029 23.9389 76.5575 23.7338 76.5121C23.6462 76.6086 24.2526 76.5608 24.3158 76.7237C24.3158 76.7237 24.3158 76.7237 24.2615 76.7448C24.2072 76.7659 24.1861 76.7116 24.1861 76.7116C24.1861 76.7116 24.2072 76.7659 24.2826 76.7991C24.2826 76.7991 24.3036 76.8534 24.379 76.8867C24.1196 76.8623 23.8935 76.7626 23.797 76.6751L24.0321 76.9588C23.9778 76.9799 23.8481 76.9677 23.7938 76.9888C23.7727 76.9345 23.7184 76.9555 23.643 76.9223C23.6641 76.9766 23.7184 76.9555 23.7394 77.0099C23.6851 77.0309 23.6098 76.9977 23.6098 76.9977C23.4468 77.0609 23.8448 77.2814 23.908 77.4443C23.908 77.4443 23.908 77.4444 23.8748 77.5197C23.9502 77.553 23.9502 77.553 23.9713 77.6073C23.9169 77.6284 23.938 77.6827 23.8837 77.7037C23.8294 77.7248 23.8294 77.7248 23.7751 77.7459C23.7208 77.767 23.7208 77.767 23.8926 77.8878C23.8926 77.8878 23.7629 77.8756 23.6875 77.8424C23.6121 77.8091 23.5578 77.8302 23.5578 77.8302C23.4825 77.7969 23.4614 77.7426 23.386 77.7094C23.4071 77.7637 23.4825 77.7969 23.5035 77.8513L23.5578 77.8302C23.7086 77.8967 24.0977 77.9332 24.2152 78.075C24.2363 78.1293 24.2363 78.1293 24.2363 78.1293L23.9348 77.9964L24.0855 78.0629C23.9558 78.0507 23.8594 77.9631 23.784 77.9299C24.0102 78.0296 24.4292 78.3044 24.0734 78.1926C23.9769 78.105 24.0523 78.1382 24.0312 78.0839L23.8051 77.9842C23.4071 77.7637 23.5578 77.8302 23.1809 77.664C23.6332 77.8634 23.6543 77.9177 23.6543 77.9177C23.6754 77.9721 23.6754 77.9721 23.8683 78.1472C23.7929 78.1139 23.7929 78.1139 23.814 78.1682L23.7597 78.1893L23.6632 78.1017L23.7597 78.1893L23.5967 78.2525C23.5967 78.2525 23.5967 78.2525 23.6178 78.3068C23.3827 78.0231 23.4249 78.1317 23.1898 77.848C23.232 77.9566 23.4249 78.1317 23.5635 78.3279C23.681 78.4698 23.8196 78.6659 23.9161 78.7535L23.8407 78.7202C23.895 78.6992 23.9161 78.7535 23.9161 78.7535L23.8618 78.7746L23.5635 78.3279C23.681 78.4698 23.7443 78.6327 23.8618 78.7746C23.7443 78.6327 23.6056 78.4365 23.467 78.2404C23.446 78.186 23.6478 78.5452 23.8075 78.7956C23.8496 78.9043 23.925 78.9375 23.9461 78.9918C23.8496 78.9043 23.8707 78.9586 23.9339 79.1215L23.8796 79.1426C23.8585 79.0883 23.8375 79.034 23.8164 78.9796L23.9007 79.1969C23.9007 79.1969 23.8464 79.218 23.9218 79.2512L24.0271 79.5228C24.006 79.4684 23.9639 79.3598 23.9428 79.3055C23.9639 79.3598 23.985 79.4141 24.0271 79.5228L23.9728 79.5438C23.9728 79.5438 24.0271 79.5228 24.0482 79.5771C24.0693 79.6314 24.0693 79.6314 24.0903 79.6857C24.015 79.6525 23.9607 79.6735 23.9396 79.6192C23.9185 79.5649 23.9185 79.5649 23.8974 79.5106C23.9185 79.5649 23.9185 79.5649 23.9396 79.6192C23.7556 79.6281 23.6802 79.5949 23.7013 79.6492C23.4962 79.6038 23.4208 79.5706 23.3997 79.5163L23.2579 79.6338C23.27 79.5041 23.27 79.5041 23.24 79.2658C23.2943 79.2447 23.3697 79.2779 23.4451 79.3112C23.3697 79.2779 23.2943 79.2447 23.219 79.2115C23.1979 79.1571 23.2311 79.0818 23.189 78.9731C23.1801 78.7891 23.1557 79.0485 23.219 79.2115L23.1436 79.1782C23.1136 78.9399 23.1801 78.7891 23.1801 78.7891L23.1501 78.5508C23.1679 78.9188 23.1557 79.0485 23.0893 79.1993C23.035 79.2204 23.0349 79.2204 22.9806 79.2414L23.0139 79.1661C23.026 79.0364 22.9596 79.1871 22.9474 79.3168C22.9142 79.3922 22.9142 79.3922 22.9142 79.3922C22.9142 79.3922 22.8931 79.3379 22.9263 79.2625C22.9596 79.1871 22.9717 79.0574 22.9174 79.0785C22.9085 78.8945 22.9661 78.5597 22.9417 78.8191C22.9296 78.9488 22.8631 79.0996 22.8177 79.3047C22.7845 79.3801 22.6758 79.4222 22.6426 79.4976C22.6758 79.4222 22.688 79.2925 22.7212 79.2171C22.7091 79.3468 22.6426 79.4976 22.5883 79.5187C22.6215 79.4433 22.6337 79.3136 22.6669 79.2382C22.7212 79.2171 22.7002 79.1628 22.7545 79.1417C22.7756 79.196 22.7212 79.2171 22.7423 79.2714C22.7756 79.196 22.7756 79.196 22.7545 79.1417C22.7877 79.0663 22.821 78.991 22.7456 78.9577C22.7999 78.9366 22.7334 79.0874 22.7002 79.1628C22.7456 78.9577 23.0625 78.6473 23.0836 78.7016C22.8664 78.7859 22.6491 78.8702 22.474 79.0631L22.5494 79.0963C22.5162 79.1717 22.4618 79.1928 22.4286 79.2682C22.5162 79.1717 22.4618 79.1928 22.3532 79.2349C22.2446 79.2771 22.157 79.3735 22.1027 79.3946L22.3321 79.1806C22.3565 78.9212 21.8733 79.6086 21.8977 79.3492L22.2357 79.0931L22.1271 79.1352L22.3897 78.8458C22.1392 79.0055 22.1725 78.9301 22.1846 78.8005C22.1303 78.8215 22.0971 78.8969 22.0971 78.8969C22.0971 78.8969 22.1514 78.8758 22.1303 78.8215C22.0428 78.918 21.9341 78.9601 21.8798 78.9812C21.9341 78.9601 21.9131 78.9058 21.8588 78.9269C22.0006 78.8094 22.1757 78.6164 22.0217 78.8637C22.1092 78.7672 22.1636 78.7461 22.2511 78.6497C22.3508 78.4235 22.209 78.5411 22.1336 78.5078C22.1336 78.5078 22.1546 78.5621 22.1003 78.5832L21.6869 78.8061C21.6869 78.8061 21.6869 78.8061 21.7412 78.785C21.8498 78.7429 21.9585 78.7007 21.862 78.6132L21.9163 78.5921C21.862 78.6132 21.7745 78.7096 21.6991 78.6764C21.8742 78.4835 22.0493 78.2906 22.1579 78.2484L21.8863 78.3538C21.9739 78.2573 22.0193 78.0522 22.1279 78.0101C22.1944 77.8593 21.6602 78.2541 21.7056 78.049C21.6513 78.0701 21.618 78.1455 21.597 78.0911C21.5548 77.9825 21.6878 77.681 21.383 77.8617L21.6035 77.4637C21.4738 77.4516 21.2954 77.9582 21.0571 77.9882C20.8942 78.0514 21.2987 77.6445 21.3108 77.5148C21.1147 77.6534 20.7434 77.9849 20.9096 77.608C21.0182 77.5658 20.985 77.6412 21.0393 77.6202L21.139 77.394C21.477 77.1379 21.4105 77.2886 21.5978 76.966C21.0393 77.6202 21.2963 76.8331 20.7588 77.5415L20.8253 77.3907L20.8796 77.3697C21.0458 76.9927 20.4208 77.7977 20.4119 77.6137C20.4451 77.5383 20.4573 77.4086 20.5659 77.3664L20.3486 77.4507C20.3276 77.3964 20.4151 77.2999 20.4362 77.3543L20.2854 77.2878C20.1979 77.3842 20.0017 77.5228 19.9474 77.5439C20.0139 77.3931 20.0349 77.4475 20.0682 77.3721L19.872 77.5107C19.9717 77.2845 20.189 77.2002 20.21 77.2545C20.6721 76.5128 20.0139 77.3932 20.1922 76.8865L20.3008 76.8444C20.5756 76.4253 20.4338 76.5428 20.4913 76.208C20.4249 76.3588 20.159 76.9619 19.9417 77.0462C19.975 76.9708 19.9539 76.9165 19.812 77.034C20.0204 76.7657 19.9117 76.8079 19.8363 76.7746L20.0779 76.431C19.9693 76.4731 19.8485 76.6449 19.6523 76.7836C19.6313 76.7292 19.8185 76.4066 19.9393 76.2348C19.8972 76.1262 19.6856 76.7082 19.5559 76.696C19.547 76.512 19.4051 76.6295 19.1879 76.7138C19.2 76.5841 19.363 76.5209 19.3751 76.3912L19.1457 76.6052C19.1457 76.6052 19.2333 76.5087 19.2122 76.4544C19.1036 76.4966 18.9706 76.7981 18.862 76.8403C18.5661 77.205 19.1068 76.1829 18.7566 76.5687C18.7899 76.4933 18.9317 76.3758 18.9982 76.225C18.6934 76.4058 18.7477 76.3847 18.4097 76.6409L18.4883 76.3604C18.3554 76.6619 18.0716 76.897 17.8422 77.111C17.7758 77.2618 17.6882 77.3582 17.7093 77.4125L17.492 77.4968C17.5253 77.4214 17.6128 77.325 17.7547 77.2074C17.7004 77.2285 17.7004 77.2285 17.6671 77.3039C17.7336 77.1531 17.8544 76.9813 18.0295 76.7884C17.9963 76.8638 17.963 76.9391 17.9298 77.0145C18.1049 76.8216 18.28 76.6287 18.434 76.3815C18.3797 76.4025 18.3465 76.4779 18.3254 76.4236C18.3586 76.3482 18.4129 76.3271 18.4672 76.3061C18.5216 76.285 18.4129 76.3271 18.3254 76.4236L18.5459 76.0256L18.4251 76.1974L18.4827 75.8627C18.1114 76.1942 17.6193 76.6976 17.381 76.7276C17.5893 76.4592 17.7101 76.2874 17.9517 75.9437C17.7312 76.3417 18.169 75.8594 18.2111 75.968C18.19 75.9137 18.3108 75.7419 18.3651 75.7208L18.006 75.9226C18.2144 75.6543 18.1057 75.6965 18.1722 75.5457C17.8309 76.1155 17.8342 75.8018 17.638 75.9405C17.7588 75.7686 17.8796 75.5968 17.9217 75.7054C18.1211 75.2531 17.3964 76.2841 17.5415 75.8529C17.5415 75.8529 17.5626 75.9072 17.6502 75.8108C17.5083 75.9283 17.4994 75.7443 17.6413 75.6267C17.578 75.4638 17.2976 75.3852 16.9684 75.8253C17.0017 75.7499 17.3851 75.2887 17.4183 75.2133L16.2137 76.6181C16.5096 76.2533 17.0503 75.2312 17.3008 75.0715C17.334 74.9961 17.313 74.9418 17.15 75.005C17.1168 75.0804 16.8298 75.6291 16.7755 75.6502C17.0293 75.1768 16.8542 75.3698 17.0536 74.9174C17.0414 75.0471 16.5915 75.6591 16.5704 75.6048C16.658 75.5084 16.945 74.9596 16.9993 74.9385L16.5283 75.4962C16.6158 75.3997 16.8906 74.9807 16.936 74.7756C16.8696 74.9263 16.8396 74.688 16.8064 74.7634L16.761 74.9685C16.6977 74.8056 16.0816 75.7945 15.9641 75.6526C16.0516 75.5562 16.4805 74.8899 16.4926 74.7602C16.2843 75.0285 15.4388 76.2314 15.1883 76.3911L15.288 76.1649L15.0919 76.3035C15.421 75.8634 16.1878 74.9409 16.4837 74.5762C16.5291 74.3711 16.5834 74.35 16.5081 74.3168C16.5535 74.1117 16.7164 74.0484 16.7375 74.1028L16.6532 73.8855C16.4327 74.2835 16.2819 74.217 16.1489 74.5186L16.5413 74.2414C16.3208 74.6394 15.7955 75.2181 15.7533 75.1095C15.8198 74.9587 16.1822 74.4432 16.2487 74.2924C16.1611 74.3889 15.9982 74.4521 16.0314 74.3767L16.2065 74.1838C16.1976 73.9998 15.8231 74.645 15.9139 74.2349C15.8928 74.1806 16.0922 73.7282 15.9714 73.9001C15.772 74.3524 14.9897 75.7183 14.8025 76.0409C14.8025 76.0409 14.9265 75.5553 15.0262 75.3292C15.1924 74.9522 15.5426 74.5664 15.6756 74.2649C15.588 74.3613 15.5215 74.5121 15.4672 74.5332C15.4794 74.4035 15.6545 74.2105 15.6002 74.2316C15.3797 74.6296 15.5037 74.1441 15.4129 74.5542C15.3043 74.5964 15.3708 74.4456 15.2954 74.4124C15.2167 74.6928 14.7458 75.2505 14.6371 75.2927C14.7247 75.1962 14.7368 75.0665 14.7701 74.9911C14.6736 74.9036 14.698 74.6442 14.5683 74.632C14.6015 74.5566 14.5926 74.3726 14.7344 74.2551C14.7012 74.3305 14.6136 74.4269 14.5593 74.448C14.6712 74.0922 14.668 74.4059 14.8131 73.9746C14.7134 74.2008 14.5504 74.264 14.4086 74.3815C14.2424 74.7585 14.5261 74.5234 14.5926 74.3726C14.3388 74.846 13.9765 75.3616 13.7803 75.5002C13.6174 75.5634 13.8922 75.1443 13.8589 75.2197C13.7203 75.0235 13.2882 76.0035 13.3037 75.5601C13.4155 75.2043 13.6239 74.936 13.7236 74.7098C13.8865 74.6466 13.7536 74.9481 13.829 74.9814L13.8201 74.7974C13.9076 74.7009 14.0162 74.6588 13.983 74.7341C14.0616 74.4537 13.7147 74.5258 13.7179 74.2121C13.6304 74.3086 13.5428 74.405 13.5307 74.5347L13.585 74.5136C13.5063 74.7941 13.3434 74.8573 13.3312 74.987C13.2105 75.1589 12.981 75.3729 12.9721 75.1889L13.1383 74.8119C13.1051 74.8873 13.114 75.0713 13.1805 74.9206C13.0597 75.0924 13.2834 74.3807 13.0297 74.8541L12.9511 75.1345C12.8303 75.3064 12.5887 75.6501 12.5466 75.5415C12.4347 75.8973 12.6009 75.5204 12.4558 75.9516C12.613 75.3907 12.6276 76.0724 12.7638 75.4572C12.5854 75.9638 12.7395 75.7166 12.6487 76.1267C12.7151 75.976 12.7484 75.9006 12.7695 75.9549C12.8238 75.9338 12.8027 75.8795 12.857 75.8584C12.8902 75.783 12.8692 75.7287 12.9024 75.6533C13.0564 75.4061 13.1318 75.4393 13.2737 75.3218C13.2948 75.3761 13.2072 75.4726 13.1407 75.6234L13.3158 75.4304C13.1829 75.732 13.1918 75.916 13.0499 76.0335L13.1253 76.0668C13.1342 76.2508 13.101 76.3261 13.1885 76.2297C13.2096 76.284 13.3969 75.9614 13.2972 76.1875L13.4933 76.0489L13.4601 76.1243C13.5566 76.2119 13.9068 75.826 13.8038 76.3659C13.8581 76.3448 13.9456 76.2484 13.9878 76.357L13.8881 76.5831C13.9967 76.541 13.8848 76.8969 14.0389 76.6496C13.773 77.2527 14.1985 76.9001 14.2074 77.0841L14.3404 76.7826C14.3615 76.8369 14.4701 76.7947 14.633 76.7315L14.7871 76.4843C14.9622 76.2914 14.8381 76.7769 14.9678 76.7891C14.8803 76.8855 14.9135 76.8102 14.8924 76.7558C14.6476 77.4132 15.3602 76.5119 15.2361 76.9974C15.3237 76.9009 15.3447 76.9553 15.3115 77.0306C15.2783 77.106 15.2993 77.1603 15.245 77.1814C15.2783 77.106 15.3115 77.0306 15.3115 77.0306C15.3115 77.0306 15.3658 77.0096 15.4744 76.9674L15.3204 77.2147C15.3082 77.3444 15.408 77.1182 15.5077 76.892C15.562 76.871 15.5952 76.7956 15.6495 76.7745C15.3958 77.2479 15.8125 76.7113 15.5587 77.1847C15.7338 76.9918 15.8303 77.0793 16.1051 76.6602C16.0719 76.7356 16.0719 76.7356 16.0176 76.7567C16.0386 76.811 16.0054 76.8864 16.1473 76.7689L15.96 77.0915L16.3102 76.7056C16.2105 76.9318 16.144 77.0826 15.9689 77.2755C16.3402 76.944 16.1318 77.2123 16.5031 76.8807L16.328 77.0736C16.3823 77.0526 16.6117 76.8386 16.4909 77.0104C16.2915 77.4627 16.8014 77.3274 16.7317 77.7919C17.1273 77.2009 16.6863 77.9969 16.8946 77.7286C16.8071 77.8251 16.7738 77.9005 16.6863 77.9969C16.7406 77.9759 16.7617 78.0302 16.7827 78.0845L16.7284 78.1056C16.6952 78.181 16.7373 78.2896 16.683 78.3107C16.7916 78.2685 16.846 78.2474 16.8581 78.1177C16.9124 78.0967 16.9124 78.0967 17 78.0002C16.9335 78.151 16.8249 78.1931 16.7916 78.2685C16.846 78.2474 16.9335 78.151 16.8459 78.2474C16.8127 78.3228 16.7584 78.3439 16.6709 78.4404C16.7462 78.4736 17.1297 78.0124 17.4256 77.6476C17.3258 77.8738 17.3802 77.8527 17.6096 77.6387C17.5431 77.7895 17.4766 77.9402 17.368 77.9824C17.3891 78.0367 17.4401 78.3293 17.6817 77.9856C17.6485 78.061 17.7028 78.0399 17.7571 78.0189C17.7028 78.0399 17.7239 78.0943 17.6695 78.1153L17.7782 78.0732C17.7992 78.1275 17.7992 78.1275 17.8746 78.1607L17.9079 78.0853C18.2581 77.6995 18.0165 78.0432 18.1462 78.0554L18.0919 78.0764C18.0011 78.4866 18.2337 77.9589 18.164 78.4234L18.318 78.1761C18.7347 77.6395 18.2272 78.5863 18.4234 78.4477L18.4899 78.2969C18.5442 78.2759 18.5109 78.3512 18.4777 78.4266C18.4445 78.502 18.3569 78.5985 18.2904 78.7493C18.2361 78.7703 18.2361 78.7703 18.2151 78.716C18.2361 78.7703 18.2029 78.8457 18.224 78.9C18.1575 79.0508 18.091 79.2016 18.0367 79.2226C18.0035 79.298 17.9492 79.3191 17.9492 79.3191C17.783 79.696 18.2118 79.0297 18.3204 78.9876C18.1996 79.1594 17.9913 79.4277 18.0124 79.482C17.9459 79.6328 18.4047 79.2048 18.4469 79.3134L18.3593 79.4099L18.4469 79.3134C18.4469 79.3134 18.468 79.3677 18.4136 79.3888C18.4469 79.3134 18.5012 79.2924 18.4801 79.2381L18.6763 79.0994L18.5677 79.1416C18.622 79.1205 18.6552 79.0451 18.6552 79.0451C18.7095 79.0241 18.6098 79.2502 18.5977 79.3799L18.5101 79.4764L18.6187 79.4342C18.6187 79.4342 18.673 79.4132 18.7606 79.3167C18.7274 79.3921 18.7273 79.3921 18.673 79.4132C18.7273 79.3921 18.7273 79.3921 18.7817 79.371C18.7817 79.371 18.7484 79.4464 18.6819 79.5972C18.8692 79.2745 18.9324 79.4375 18.9535 79.4918C18.9203 79.5672 18.9956 79.6004 19.05 79.5793C19.0378 79.709 19.0921 79.688 18.9592 79.9895C19.0467 79.893 19.0589 79.7633 19.101 79.872L19.1553 79.8509L19.2307 79.8841L19.1975 79.9595C19.1975 79.9595 19.1975 79.9595 19.1642 80.0349C19.1642 80.0349 19.1642 80.0349 19.2396 80.0681C19.2396 80.0681 19.2396 80.0681 19.2186 80.0138C19.2396 80.0681 19.2939 80.0471 19.3483 80.026C19.315 80.1014 19.2275 80.1978 19.2607 80.1225C19.0856 80.3154 19.4447 80.1135 19.4569 79.9839C19.478 80.0382 19.478 80.0382 19.4447 80.1135L19.3904 80.1346L19.4869 80.2222C19.4415 80.4273 19.4836 80.5359 19.5712 80.4394C19.5922 80.4937 19.6465 80.4727 19.6798 80.3973C19.6676 80.527 19.743 80.5602 19.8516 80.5181C19.7973 80.5391 19.7641 80.6145 19.7641 80.6145C20.1443 80.467 19.5282 81.4559 20.2164 80.8139L20.2375 80.8683C20.2164 80.8139 20.2707 80.7929 20.2496 80.7386L20.3039 80.7175L20.4126 80.6753C20.4336 80.7296 20.4004 80.805 20.3882 80.9347C20.4636 80.968 20.5179 80.9469 20.6144 81.0344C20.6355 81.0888 20.7109 81.122 20.753 81.2306L20.6533 81.4568C20.783 81.4689 20.843 81.9456 20.9848 81.828C20.7821 82.5941 21.4971 82.5041 21.6114 82.9597L21.7233 82.6038C21.8408 82.7457 21.9373 82.8332 22.067 82.8454C22.067 82.8454 22.0126 82.8665 22.0337 82.9208C22.088 82.8997 22.088 82.8997 22.067 82.8454C22.1213 82.8243 22.1423 82.8786 22.1967 82.8576L21.7476 82.3444C21.8019 82.3234 21.8773 82.3566 21.9648 82.2601C21.9316 82.3355 21.823 82.3777 21.7897 82.4531C22.1156 82.3266 21.8829 82.8543 22.088 82.8997C22.088 82.8997 22.1423 82.8786 22.1213 82.8243C22.1423 82.8786 22.1423 82.8786 22.1634 82.9329L22.0759 83.0294C22.0759 83.0294 22.1302 83.0083 22.1845 82.9873C22.2655 83.5182 22.3952 83.5304 22.5371 83.4128C22.7 83.3496 22.7665 83.1989 22.8897 83.8384C22.9229 83.763 22.944 83.8174 22.9651 83.8717C22.9318 83.947 22.9318 83.947 22.8986 84.0224C22.9529 84.0014 22.9318 83.9471 22.9862 83.926C23.0072 83.9803 23.0283 84.0346 23.0494 84.0889L23.0705 84.1432C23.0915 84.1975 23.0915 84.1975 23.1126 84.2518L23.0583 84.2729L22.9918 84.4237L23.0794 84.3272C23.1215 84.4359 23.1637 84.5445 23.1304 84.6199C23.0883 84.5112 23.1004 84.3815 23.0794 84.3272L23.1337 84.3062L23.0794 84.3272C23.0583 84.2729 23.0583 84.2729 23.0372 84.2186C23.0583 84.2729 23.1337 84.3062 23.1669 84.2308L23.2091 84.3394L23.1547 84.3605L23.2091 84.3394L23.2569 84.9457C23.329 85.2927 23.269 84.816 23.188 84.2851L23.2966 84.2429C23.4109 84.6985 23.3542 83.9082 23.5584 85.0787C23.5317 84.5267 23.7757 84.9944 23.6346 83.9868C23.7189 84.204 23.8243 84.4756 23.7522 84.1287L24.0107 85.2781C24.0107 85.2781 23.9597 84.9855 23.9418 84.6175C23.8697 84.2705 23.873 83.9568 23.873 83.9568C24.0594 84.7593 24.1737 85.2149 24.2847 85.9842C24.258 85.4321 24.2369 85.3778 24.2701 85.3024C24.3034 85.2271 24.2612 85.1184 24.1591 84.5332L24.3244 85.2814C24.3455 85.3357 24.1713 84.4035 24.3698 85.0763C24.4331 85.2392 24.442 85.4232 24.5052 85.5862C24.6738 86.0207 24.707 85.9453 24.7824 85.9785C24.8367 85.9574 24.8578 86.0117 24.9332 86.045C24.9543 86.0993 25.0296 86.1325 25.0507 86.1868C25.0718 86.2412 25.0718 86.2412 25.0929 86.2955C25.0929 86.2955 25.1139 86.3498 25.1682 86.3287C24.6657 84.7115 25.4333 86.8508 25.0361 85.5051C25.1837 85.8853 25.2469 86.0482 25.3401 86.4495C25.3677 85.8764 25.6838 86.6911 25.4042 85.4873ZM27.6816 73.4806L27.6062 73.4473C27.4765 73.4352 27.5519 73.4684 27.6816 73.4806ZM12.4136 75.843C12.4347 75.8973 12.4014 75.9727 12.4136 75.843V75.843ZM17.4929 76.3717C17.5804 76.2752 17.5472 76.3506 17.535 76.4803C17.4807 76.5014 17.4596 76.4471 17.4929 76.3717ZM19.3386 76.7803C19.393 76.7592 19.5891 76.6206 19.4473 76.7382C19.26 77.0608 19.3265 76.91 19.3386 76.7803ZM24.7784 83.2305L24.8295 83.5232C24.8084 83.4689 24.7452 83.3059 24.682 83.143L24.7363 83.1219L24.7784 83.2305ZM22.7569 79.9532C22.778 80.0075 22.7447 80.0829 22.7447 80.0829C22.6361 80.125 22.6361 80.125 22.7569 79.9532ZM22.3978 80.155C22.431 80.0796 22.5186 79.9831 22.5518 79.9078C22.5064 80.1128 22.4732 80.1882 22.3978 80.155ZM22.5874 80.6438C22.5874 80.6438 22.5664 80.5895 22.6207 80.5684C22.6539 80.493 22.7082 80.4719 22.7415 80.3966C22.7625 80.4509 22.7293 80.5263 22.7504 80.5806C22.6961 80.6016 22.6418 80.6227 22.5874 80.6438ZM22.9142 79.3922C22.9895 79.4255 23.0649 79.4587 23.0649 79.4587C23.1071 79.5673 23.0949 79.697 23.116 79.7513C23.0528 79.5884 23.0649 79.4587 23.0406 79.7181L22.9652 79.6848C22.9652 79.6848 22.9652 79.6848 22.9441 79.6305C22.9441 79.6305 22.9442 79.6305 22.9652 79.6848L22.8898 79.6516C22.9231 79.5762 22.8809 79.4676 22.9142 79.3922ZM22.8599 79.4133C22.8809 79.4676 22.902 79.5219 22.8599 79.4133V79.4133ZM23.6267 78.4908C23.6478 78.5452 23.7232 78.5784 23.7232 78.5784L23.6478 78.5452C23.6267 78.4908 23.6267 78.4908 23.6267 78.4908ZM23.6146 78.6205C23.5935 78.5662 23.5935 78.5662 23.6146 78.6205C23.5392 78.5873 23.5392 78.5873 23.6146 78.6205C23.5392 78.5873 23.5392 78.5873 23.5935 78.5662C23.5935 78.5662 23.5935 78.5662 23.6146 78.6205ZM23.9582 78.8621C23.8829 78.8289 23.8829 78.8289 23.8618 78.7746C23.9372 78.8078 23.9372 78.8078 23.9582 78.8621ZM23.9372 78.8078C23.8829 78.8289 23.8829 78.8289 23.9372 78.8078C23.8618 78.7746 23.8618 78.7746 23.8407 78.7202C23.8407 78.7202 23.895 78.6992 23.9161 78.7535L23.9372 78.8078ZM23.8407 78.7202C23.8196 78.6659 23.8196 78.6659 23.8407 78.7202C23.7864 78.7413 23.7653 78.687 23.7653 78.687L23.7443 78.6327L23.8407 78.7202C23.8407 78.7202 23.8196 78.6659 23.8407 78.7202ZM22.6839 80.7313L22.7714 80.6349C22.7714 80.6349 22.7715 80.6349 22.7925 80.6892C22.7171 80.656 22.6628 80.677 22.6839 80.7313ZM23.0617 79.7724C23.0828 79.8267 23.0828 79.8267 23.1249 79.9353C23.1249 79.9353 23.1249 79.9353 23.0706 79.9564C23.0284 79.8478 23.0617 79.7724 23.0617 79.7724ZM23.116 79.7513C23.1371 79.8056 23.1581 79.8599 23.1581 79.8599C23.1581 79.8599 23.1581 79.8599 23.116 79.7513L23.1581 79.8599C23.1581 79.8599 23.1371 79.8056 23.116 79.7513ZM23.0495 79.9021C23.1249 79.9353 23.0706 79.9564 23.0495 79.9021C23.0917 80.0107 23.1549 80.1737 23.1427 80.3034C23.1427 80.3034 23.1427 80.3034 23.0884 80.3244C23.1216 80.249 23.1549 80.1737 23.0495 79.9021ZM24.2516 81.8727C24.2516 81.8727 24.2727 81.9271 24.2516 81.8727V81.8727ZM24.3059 81.8517C24.2848 81.7974 24.2848 81.7974 24.3059 81.8517V81.8517ZM23.2781 80.8132C23.257 80.7589 23.257 80.7589 23.2781 80.8132C23.2781 80.8132 23.2991 80.8675 23.3202 80.9219C23.2991 80.8675 23.2781 80.8132 23.2781 80.8132ZM23.5651 80.2645C23.6404 80.2977 23.6404 80.2977 23.6404 80.2977C23.7037 80.4606 23.7458 80.5693 23.7547 80.7533L23.7004 80.7743C23.6583 80.6657 23.6704 80.536 23.6915 80.5903C23.595 80.5028 23.5529 80.3942 23.5651 80.2645ZM23.6194 80.2434C23.5983 80.1891 23.5983 80.1891 23.6194 80.2434C23.6526 80.168 23.5983 80.1891 23.6194 80.2434C23.6194 80.2434 23.6737 80.2223 23.6194 80.2434ZM23.9476 80.9284C23.8844 80.7654 23.8423 80.6568 23.8212 80.6025C23.8633 80.7111 23.9055 80.8197 23.9266 80.8741C23.8633 80.7111 23.8212 80.6025 23.8001 80.5482C23.758 80.4396 23.8423 80.6568 23.9266 80.8741L23.779 80.4939C23.779 80.4939 23.8334 80.4728 23.8544 80.5271C23.8755 80.5814 23.9387 80.7444 23.9476 80.9284C24.002 80.9073 24.002 80.9073 23.9476 80.9284ZM23.7369 80.3852L23.7158 80.3309C23.6947 80.2766 23.7158 80.3309 23.7369 80.3852C23.7701 80.3099 23.7912 80.3642 23.7912 80.3642C23.7369 80.3852 23.7369 80.3852 23.7369 80.3852ZM23.7701 80.3099C23.7912 80.3642 23.7912 80.3642 23.7701 80.3099V80.3099ZM23.6737 80.2223C23.6737 80.2223 23.728 80.2012 23.7491 80.2555C23.728 80.2012 23.6737 80.2223 23.6737 80.2223ZM23.4897 80.2312L23.625 80.7411C23.5318 80.3398 23.4564 80.3066 23.4897 80.2312ZM23.3745 80.9008L23.2392 80.3909C23.3356 80.4785 23.3446 80.6625 23.3745 80.9008ZM23.3745 80.9008C23.3745 80.9008 23.3202 80.9219 23.3745 80.9008C23.3113 80.7378 23.2481 80.5749 23.2392 80.3909L23.3745 80.9008ZM23.2181 80.3366C23.1549 80.1737 23.167 80.044 23.1249 79.9353L23.2181 80.3366ZM23.1849 80.412C23.227 80.5206 23.1938 80.596 23.2359 80.7046C23.2359 80.7046 23.2359 80.7046 23.2149 80.6503C23.2481 80.5749 23.227 80.5206 23.1849 80.412C23.2059 80.4663 23.1849 80.412 23.1849 80.412ZM24.652 82.9047L24.6731 82.959L24.652 82.9047ZM24.1916 81.3961C24.1373 81.4172 24.1373 81.4172 24.1916 81.3961C24.1373 81.4172 24.1373 81.4172 24.1916 81.3961C24.1916 81.3961 24.1705 81.3418 24.1916 81.3961ZM24.1705 81.3418C24.0952 81.3085 24.0952 81.3085 24.1705 81.3418C24.1495 81.2875 24.1495 81.2875 24.1495 81.2875C24.1495 81.2875 24.1495 81.2875 24.1705 81.3418ZM23.993 80.7233L23.8334 80.4728C23.8334 80.4728 23.8334 80.4728 23.8877 80.4517C23.9088 80.506 23.9509 80.6147 23.993 80.7233ZM23.7823 80.1802C23.728 80.2012 23.7069 80.1469 23.6526 80.168C23.6526 80.168 23.6858 80.0926 23.6648 80.0383C23.6648 80.0383 23.7191 80.0172 23.7402 80.0715C23.7402 80.0715 23.7612 80.1259 23.7823 80.1802ZM23.5894 80.0051C23.5894 80.0051 23.5351 80.0261 23.5894 80.0051C23.5351 80.0261 23.5351 80.0261 23.5894 80.0051C23.5351 80.0261 23.5351 80.0261 23.5894 80.0051ZM23.5561 80.0804C23.5018 80.1015 23.5018 80.1015 23.5561 80.0804C23.4808 80.0472 23.4808 80.0472 23.4597 79.9929L23.514 79.9718C23.5351 80.0261 23.5351 80.0261 23.5561 80.0804ZM23.4597 79.9929L23.5018 80.1015L23.4475 80.1226C23.4475 80.1226 23.4475 80.1226 23.4264 80.0683L23.3511 80.035L23.3721 80.0894C23.3178 80.1104 23.2967 80.0561 23.2635 80.1315C23.2635 80.1315 23.3178 80.1104 23.3932 80.1437C23.4143 80.198 23.4143 80.198 23.4143 80.198C23.4986 80.4152 23.5075 80.5992 23.5707 80.7622C23.5707 80.7622 23.5707 80.7622 23.5164 80.7833C23.4532 80.6203 23.4864 80.5449 23.5286 80.6535C23.3721 80.0894 23.4443 80.4363 23.5164 80.7833L23.4621 80.8043C23.441 80.75 23.441 80.75 23.4199 80.6957C23.3778 80.5871 23.3356 80.4785 23.3024 80.5538C23.3235 80.6082 23.2902 80.6835 23.3535 80.8465C23.2902 80.6835 23.2813 80.4995 23.2181 80.3366L23.2724 80.3155L23.2181 80.3366C23.1549 80.1737 23.1671 80.044 23.146 79.9897C23.2546 79.9475 23.33 79.9807 23.4597 79.9929ZM23.2003 79.9686C23.2214 80.0229 23.2092 80.1526 23.2724 80.3155L23.2003 79.9686C23.2003 79.9686 23.1792 79.9143 23.2003 79.9686ZM23.0495 79.9021C23.0074 79.7935 22.9863 79.7392 22.9863 79.7392C23.0617 79.7724 23.0284 79.8478 23.0495 79.9021ZM23.0495 79.9021C23.0917 80.0107 23.1006 80.1947 23.1095 80.3787C23.0463 80.2158 23.0374 80.0318 23.0495 79.9021ZM23.1516 80.4874C23.1727 80.5417 23.1938 80.596 23.1395 80.6171C23.1395 80.6171 23.1395 80.6171 23.1516 80.4874C23.1184 80.5627 23.1727 80.5417 23.1516 80.4874ZM23.1062 80.6924L23.0852 80.6381L23.1062 80.6924ZM24.652 82.9047C24.652 82.9047 24.7063 82.8836 24.7274 82.9379L24.7574 83.1762L24.7031 83.1973C24.6941 83.0133 24.6731 82.959 24.652 82.9047ZM25.1627 81.6442C25.1838 81.6985 25.2381 81.6774 25.2592 81.7317C25.2049 81.7528 25.1295 81.7196 25.0752 81.7406C24.9698 81.4691 25.0663 81.5566 25.1627 81.6442ZM25.3889 81.7439L25.3678 81.6896C25.4764 81.6474 25.4975 81.7017 25.3889 81.7439ZM23.9452 80.1169C23.8909 80.138 23.8699 80.0837 23.8699 80.0837C23.9242 80.0626 23.9242 80.0626 23.9452 80.1169ZM23.5383 79.7124C23.5383 79.7124 23.484 79.7335 23.5383 79.7124V79.7124ZM23.3876 79.646L23.3122 79.6127C23.3332 79.667 23.3332 79.667 23.3876 79.646C23.4086 79.7003 23.4086 79.7003 23.3876 79.646C23.484 79.7335 23.5051 79.7878 23.4297 79.7546L23.2035 79.6549C23.0949 79.697 23.3754 79.7757 23.4508 79.8089C23.4508 79.8089 23.3965 79.83 23.3211 79.7967C23.3211 79.7967 23.1914 79.7846 23.1371 79.8056L23.0949 79.697L23.2457 79.7635L23.0738 79.6427L23.0228 79.3501C23.1614 79.5462 23.2579 79.6338 23.3876 79.646ZM22.9652 79.6848C22.9863 79.7392 23.0074 79.7935 22.9741 79.8689C22.9741 79.8689 22.9741 79.8689 22.9198 79.8899C22.9531 79.8146 22.932 79.7602 22.9652 79.6848ZM22.9952 79.9232C23.0374 80.0318 23.0041 80.1072 23.0463 80.2158C23.0673 80.2701 23.0341 80.3455 23.0552 80.3998C23.0673 80.2701 23.0041 80.1072 22.9952 79.9232ZM22.9133 80.5174L22.859 80.5384C22.8379 80.4841 22.8501 80.3544 22.829 80.3001C22.8833 80.279 22.8833 80.279 22.9376 80.258C22.9255 80.3876 22.8922 80.463 22.9133 80.5174ZM23.8973 83.6974C23.9184 83.7517 23.9394 83.806 23.9394 83.806C23.9184 83.7517 23.8973 83.6974 23.8973 83.6974ZM25.1651 82.4556C25.2405 82.4888 25.2405 82.4888 25.1651 82.4556C25.1651 82.4556 25.1108 82.4767 25.0565 82.4977C24.9933 82.3348 25.153 82.5853 25.1441 82.4013L25.1651 82.4556ZM25.8501 82.1273C25.829 82.073 25.829 82.073 25.8501 82.1273C25.7958 82.1484 25.7204 82.1152 25.6661 82.1362C25.3856 82.0576 25.4189 81.9822 25.2681 81.9157C25.3224 81.8947 25.4189 81.9822 25.5486 81.9944L25.3224 81.8947C25.4521 81.9068 25.5818 81.919 25.7115 81.9312C25.7326 81.9855 25.829 82.073 25.8501 82.1273ZM26.0747 80.2905C26.0536 80.2362 26.0536 80.2362 26.0747 80.2905V80.2905ZM24.1172 76.0509C24.0418 76.0177 23.8911 75.9512 24.0751 75.9423C24.3977 76.1295 24.2469 76.0631 24.1172 76.0509ZM24.2024 75.143C24.1481 75.1641 24.1481 75.1641 24.2024 75.143V75.143ZM24.8971 73.8736C24.876 73.8193 24.9514 73.8526 24.9514 73.8526C25.0268 73.8858 25.0479 73.9401 25.1233 73.9733L24.8971 73.8736ZM25.0122 73.2041C25.0876 73.2373 25.0876 73.2373 25.0876 73.2373L25.0122 73.2041ZM25.0665 73.183C25.1209 73.1619 25.1209 73.1619 25.0665 73.183C25.1209 73.1619 25.1419 73.2162 25.2173 73.2495L25.0665 73.183ZM25.2084 73.0655C25.3381 73.0776 25.4135 73.1109 25.5099 73.1984C25.5099 73.1984 25.51 73.1984 25.4556 73.2195C25.3049 73.153 25.2295 73.1198 25.2084 73.0655ZM24.906 74.0576C24.9603 74.0366 24.9603 74.0366 24.906 74.0576C24.9814 74.0909 25.0779 74.1784 25.0779 74.1784C25.0025 74.1452 24.9814 74.0909 24.906 74.0576C24.8517 74.0787 24.8517 74.0787 24.8728 74.133C24.8185 74.1541 24.8185 74.1541 24.8185 74.1541C24.7431 74.1209 24.5923 74.0544 24.5923 74.0544C24.5923 74.0544 24.6466 74.0333 24.722 74.0666C24.6466 74.0333 24.6466 74.0333 24.5712 74.0001C24.5712 74.0001 24.5712 74.0001 24.5502 73.9458C24.6799 73.9579 24.8306 74.0244 24.906 74.0576ZM23.8887 75.1398C23.943 75.1187 24.0727 75.1309 24.1481 75.1641L23.8887 75.1398ZM23.7071 75.9601C23.8368 75.9723 24.0418 76.0177 24.1172 76.0509C24.0629 76.072 24.0086 76.0931 24.1383 76.1052C24.0086 76.0931 23.9332 76.0598 23.9332 76.0598C23.8578 76.0266 23.7824 75.9933 24.0208 75.9634C23.9121 76.0055 23.8368 75.9723 23.7071 75.9601ZM23.754 77.6916C23.6997 77.7127 23.6786 77.6583 23.6032 77.6251L23.754 77.6916ZM23.3738 77.8391C23.4492 77.8723 23.4703 77.9266 23.5668 78.0142L23.416 77.9477C23.3949 77.8934 23.3195 77.8602 23.3738 77.8391C23.3195 77.8602 23.3195 77.8602 23.3738 77.8391C23.3195 77.8602 23.3738 77.8391 23.3738 77.8391ZM23.262 78.195C23.2409 78.1406 23.1655 78.1074 23.1444 78.0531C23.1987 78.032 23.253 78.0109 23.2863 77.9356L23.4581 78.0563L23.2652 77.8812C23.2652 77.8812 23.2652 77.8812 23.3195 77.8602C23.4914 77.981 23.8561 78.2768 23.8018 78.2979C23.7264 78.2647 23.651 78.2314 23.5335 78.0896L23.7475 78.319C23.7475 78.319 23.5757 78.1982 23.63 78.1771L23.6932 78.3401L23.6721 78.2858L23.6932 78.3401C23.6932 78.3401 23.6932 78.3401 23.6389 78.3611C22.9215 77.6397 23.8739 78.6449 23.3916 78.2071L23.262 78.195ZM23.497 78.4787C23.4006 78.3911 23.4759 78.4244 23.497 78.4787V78.4787ZM23.4305 78.6295L23.5059 78.6627C23.527 78.717 23.527 78.717 23.5481 78.7713C23.4938 78.7924 23.4727 78.7381 23.4305 78.6295ZM23.5813 78.6959C23.6024 78.7502 23.6024 78.7502 23.6024 78.7502C23.6024 78.7502 23.6024 78.7502 23.5813 78.6959ZM23.4273 78.9432C23.5027 78.9764 23.5027 78.9764 23.4484 78.9975C23.4484 78.9975 23.4484 78.9975 23.4273 78.9432ZM23.4905 79.1061C23.587 79.1936 23.608 79.2479 23.6502 79.3566C23.608 79.2479 23.5659 79.1393 23.4905 79.1061ZM23.7345 79.5738C23.7556 79.6281 23.7766 79.6824 23.8188 79.7911C23.7645 79.8121 23.7434 79.7578 23.6891 79.7789C23.668 79.7246 23.647 79.6703 23.6348 79.8C23.6137 79.7457 23.5926 79.6914 23.5505 79.5827C23.6048 79.5617 23.6802 79.5949 23.7345 79.5738ZM23.5294 79.5284C23.5505 79.5827 23.5926 79.6914 23.6137 79.7457L23.4962 79.6038C23.4962 79.6038 23.4962 79.6038 23.4419 79.6249L23.0982 79.3833C23.2489 79.4498 23.3786 79.4619 23.5294 79.5284ZM22.7301 79.4011C22.7845 79.3801 22.7845 79.3801 22.7301 79.4011C22.7845 79.3801 22.7845 79.3801 22.7301 79.4011C22.7845 79.3801 22.7845 79.3801 22.7301 79.4011C22.8055 79.4344 22.8055 79.4344 22.8055 79.4344L22.8144 79.6184L22.8355 79.6727L22.8566 79.727C22.8144 79.6184 22.8234 79.8024 22.8201 80.1161L22.7658 80.1372C22.7447 80.0829 22.778 80.0075 22.7569 79.9532C22.7569 79.9532 22.8112 79.9321 22.7901 79.8778L22.7358 79.8988C22.7269 79.7148 22.718 79.5308 22.6969 79.4765C22.6848 79.6062 22.6726 79.7359 22.6815 79.9199C22.6272 79.941 22.6483 79.9953 22.594 80.0164C22.6183 79.757 22.6426 79.4976 22.6337 79.3136C22.6459 79.1839 22.6037 79.0753 22.5826 79.0209L22.6369 78.9999C22.7545 79.1417 22.7755 79.196 22.7301 79.4011ZM22.7456 78.9577C22.7666 79.012 22.7666 79.012 22.7456 78.9577V78.9577ZM22.607 78.7616C22.628 78.8159 22.628 78.8159 22.5948 78.8912C22.628 78.8159 22.607 78.7616 22.607 78.7616ZM22.5826 79.0209C22.6369 78.9999 22.5826 79.0209 22.5826 79.0209C22.6126 79.2593 22.6426 79.4976 22.5972 79.7027C22.5429 79.7237 22.4343 79.7659 22.5551 79.5941C22.5007 79.6151 22.5007 79.6151 22.4675 79.6905C22.4675 79.6905 22.4464 79.6362 22.5007 79.6151C22.5007 79.6151 22.5551 79.5941 22.6094 79.573C22.6969 79.4765 22.5883 79.5187 22.534 79.5397C22.534 79.5397 22.5129 79.4854 22.5672 79.4643C22.6215 79.4433 22.6005 79.389 22.7091 79.3468C22.6548 79.3679 22.6215 79.4433 22.6215 79.4433C22.6337 79.3136 22.6248 79.1296 22.658 79.0542C22.5283 79.042 22.5283 79.042 22.5826 79.0209C22.5494 79.0963 22.5162 79.1717 22.504 79.3014C22.4829 79.2471 22.5705 79.1506 22.5826 79.0209ZM22.0695 79.47L22.2114 79.3525C22.2114 79.3525 22.2324 79.4068 22.1781 79.4279C22.1781 79.4279 22.1238 79.4489 22.0695 79.47ZM22.4529 79.0088C22.5162 79.1717 22.4075 79.2139 22.4197 79.0842L22.4529 79.0088C22.4197 79.0842 22.4197 79.0842 22.4529 79.0088ZM22.3354 78.8669C22.3354 78.8669 22.3565 78.9212 22.3022 78.9423C22.3565 78.9212 22.3565 78.9212 22.3354 78.8669ZM22.2446 79.2771C22.1903 79.2982 22.136 79.3192 22.136 79.3192L22.2446 79.2771ZM22.0873 79.838C22.1538 79.6873 21.9787 79.8802 22.0452 79.7294C22.0784 79.654 22.1327 79.6329 22.187 79.6119C22.1749 79.7416 22.1084 79.8923 22.0962 80.022C22.0419 80.0431 21.9876 80.0642 21.9333 80.0853L21.9665 80.0099L21.9333 80.0853C21.879 80.1063 21.8247 80.1274 21.8036 80.0731L21.8368 79.9977C21.8701 79.9223 21.9787 79.8802 22.0873 79.838ZM21.9852 79.2528C21.9309 79.2738 21.9309 79.2738 21.9852 79.2528C21.9641 79.1984 21.9641 79.1984 21.9852 79.2528C21.9641 79.1984 21.9641 79.1984 21.9852 79.2528ZM21.8377 78.8726C21.8588 78.9269 21.8044 78.948 21.8377 78.8726C21.8377 78.8726 21.8044 78.948 21.8377 78.8726ZM21.1138 78.7785C21.1803 78.6277 21.2014 78.6821 21.31 78.6399C21.2224 78.7364 21.1892 78.8118 21.1138 78.7785ZM17.5333 78.7306C17.5666 78.6552 17.5666 78.6552 17.5333 78.7306C17.5666 78.6552 17.5123 78.6763 17.5333 78.7306ZM18.887 79.6426C18.9413 79.6215 18.9746 79.5461 19.0832 79.504C19.0289 79.525 18.9413 79.6215 18.887 79.6426C18.9413 79.6215 18.9413 79.6215 18.887 79.6426ZM19.1343 79.7966C19.1886 79.7755 19.1343 79.7966 19.1343 79.7966C19.1764 79.9052 19.1221 79.9263 19.1343 79.7966ZM22.1634 82.9329C22.2177 82.9119 22.1634 82.9329 22.1634 82.9329C22.2177 82.9119 22.2388 82.9662 22.2388 82.9662L22.2056 83.0416C22.1845 82.9873 22.1634 82.9329 22.1634 82.9329ZM22.2056 83.0416L22.2599 83.0205C22.2809 83.0748 22.2266 83.0959 22.2056 83.0416ZM23.3177 84.2973C23.2966 84.2429 23.2966 84.2429 23.3298 84.1675C23.3088 84.1132 23.3631 84.0922 23.3209 83.9835C23.3209 83.9835 23.3209 83.9835 23.3753 83.9625C23.4174 84.0711 23.3842 84.1465 23.4052 84.2008L23.3177 84.2973ZM23.7011 83.836C23.7433 83.9447 23.7643 83.999 23.689 83.9657C23.7433 83.9446 23.7222 83.8903 23.7011 83.836Z" fill="#CBECFF"/>
<path d="M101.54 18.0005L107.084 5.31049H109.136L114.68 18.0005H112.34L111.062 14.9585H105.104L103.808 18.0005H101.54ZM105.914 12.9965H110.252L108.074 7.95649L105.914 12.9965ZM116.589 18.0005V8.49649H118.767V12.3485H122.961V8.49649H125.139V18.0005H122.961V14.1665H118.767V18.0005H116.589ZM127.874 18.0005V8.49649H130.052V12.3485H134.246V8.49649H136.424V18.0005H134.246V14.1665H130.052V18.0005H127.874ZM147.133 18.0005H144.973V16.8305C144.205 17.7425 143.179 18.1985 141.895 18.1985C140.947 18.1985 140.143 17.9405 139.483 17.4245C138.835 16.8965 138.511 16.1645 138.511 15.2285C138.511 14.2085 138.865 13.4345 139.573 12.9065C140.281 12.3785 141.211 12.1145 142.363 12.1145C143.287 12.1145 144.163 12.2465 144.991 12.5105V12.3305C144.991 11.6705 144.787 11.1665 144.379 10.8185C143.983 10.4705 143.407 10.2965 142.651 10.2965C141.787 10.2965 140.881 10.4945 139.933 10.8905L139.339 9.14449C140.515 8.61649 141.721 8.35249 142.957 8.35249C144.337 8.35249 145.375 8.70049 146.071 9.39649C146.779 10.0925 147.133 11.0825 147.133 12.3665V18.0005ZM145.027 14.5625V14.0225C144.379 13.7705 143.653 13.6445 142.849 13.6445C142.165 13.6445 141.631 13.7765 141.247 14.0405C140.863 14.3045 140.671 14.6765 140.671 15.1565C140.671 15.5885 140.845 15.9305 141.193 16.1825C141.541 16.4345 141.979 16.5605 142.507 16.5605C143.239 16.5605 143.839 16.3745 144.307 16.0025C144.787 15.6305 145.027 15.1505 145.027 14.5625Z" fill="#7A7A7A"/>
<path d="M106.866 42.1685C105.457 42.1685 104.285 41.6832 103.352 40.7125C102.419 39.7325 101.952 38.5285 101.952 37.1005C101.952 35.6912 102.423 34.4965 103.366 33.5165C104.309 32.5272 105.489 32.0325 106.908 32.0325C107.729 32.0325 108.429 32.1678 109.008 32.4385C109.587 32.6998 110.151 33.0918 110.702 33.6145L109.974 34.3985C109.031 33.5025 108.005 33.0545 106.894 33.0545C105.811 33.0545 104.906 33.4418 104.178 34.2165C103.459 34.9912 103.1 35.9525 103.1 37.1005C103.1 38.2392 103.464 39.2005 104.192 39.9845C104.92 40.7592 105.821 41.1465 106.894 41.1465C107.529 41.1465 108.089 41.0298 108.574 40.7965C109.059 40.5632 109.554 40.2085 110.058 39.7325L110.786 40.5025C110.235 41.0532 109.657 41.4685 109.05 41.7485C108.443 42.0285 107.715 42.1685 106.866 42.1685ZM112.54 42.0005V34.7625H118.812V42.0005H117.734V35.7145H113.618V42.0005H112.54ZM124.386 42.1685C123.368 42.1685 122.51 41.8185 121.81 41.1185C121.119 40.4092 120.774 39.4992 120.774 38.3885C120.774 37.3338 121.105 36.4425 121.768 35.7145C122.43 34.9772 123.256 34.6085 124.246 34.6085C125.282 34.6085 126.103 34.9725 126.71 35.7005C127.316 36.4285 127.62 37.3432 127.62 38.4445C127.62 38.5845 127.615 38.7105 127.606 38.8225H121.866C121.94 39.5598 122.216 40.1478 122.692 40.5865C123.177 41.0158 123.751 41.2305 124.414 41.2305C125.282 41.2305 126.042 40.8898 126.696 40.2085L127.368 40.8105C126.556 41.7158 125.562 42.1685 124.386 42.1685ZM121.866 37.9545H126.528C126.462 37.2545 126.229 36.6758 125.828 36.2185C125.436 35.7518 124.899 35.5185 124.218 35.5185C123.602 35.5185 123.074 35.7472 122.636 36.2045C122.197 36.6618 121.94 37.2452 121.866 37.9545ZM135.751 43.8065V42.0005H129.507V34.7625H130.585V41.0485H134.645V34.7625H135.723V41.0485H136.815L136.647 43.8065H135.751ZM138.298 42.0005V34.7625H139.376V40.4885L143.674 34.7625H144.724V42.0005H143.646V36.2745L139.334 42.0005H138.298ZM149.286 42.1545C148.548 42.1545 147.914 41.9538 147.382 41.5525C146.85 41.1512 146.584 40.5912 146.584 39.8725C146.584 39.1165 146.864 38.5332 147.424 38.1225C147.984 37.7118 148.735 37.5065 149.678 37.5065C150.424 37.5065 151.162 37.6092 151.89 37.8145V37.5905C151.89 36.9558 151.703 36.4705 151.33 36.1345C150.956 35.7985 150.429 35.6305 149.748 35.6305C149.038 35.6305 148.306 35.8032 147.55 36.1485L147.228 35.2665C148.124 34.8558 149.001 34.6505 149.86 34.6505C150.886 34.6505 151.666 34.9165 152.198 35.4485C152.702 35.9525 152.954 36.6618 152.954 37.5765V42.0005H151.89V40.9225C151.246 41.7438 150.378 42.1545 149.286 42.1545ZM149.496 41.2865C150.168 41.2865 150.737 41.1045 151.204 40.7405C151.67 40.3765 151.904 39.9098 151.904 39.3405V38.6685C151.194 38.4632 150.49 38.3605 149.79 38.3605C149.127 38.3605 148.609 38.4958 148.236 38.7665C147.862 39.0278 147.676 39.3872 147.676 39.8445C147.676 40.2832 147.848 40.6332 148.194 40.8945C148.548 41.1558 148.982 41.2865 149.496 41.2865ZM154.887 42.1125C154.607 42.1125 154.318 42.0752 154.019 42.0005L154.145 41.0765C154.36 41.1418 154.533 41.1745 154.663 41.1745C154.869 41.1745 155.037 41.1512 155.167 41.1045C155.298 41.0485 155.438 40.9132 155.587 40.6985C155.746 40.4745 155.867 40.1618 155.951 39.7605C156.035 39.3592 156.105 38.7898 156.161 38.0525C156.227 37.3152 156.259 36.4192 156.259 35.3645V34.7625H161.383V42.0005H160.305V35.7145H157.281V35.8825C157.281 36.9838 157.239 37.9218 157.155 38.6965C157.071 39.4712 156.964 40.0778 156.833 40.5165C156.712 40.9552 156.539 41.2958 156.315 41.5385C156.091 41.7812 155.872 41.9352 155.657 42.0005C155.452 42.0752 155.195 42.1125 154.887 42.1125ZM163.796 42.0005V34.7625H164.874V40.4885L169.172 34.7625H170.222V42.0005H169.144V36.2745L164.832 42.0005H163.796ZM175.89 42.1685C174.844 42.1685 173.962 41.7998 173.244 41.0625C172.534 40.3158 172.18 39.4245 172.18 38.3885C172.18 37.3525 172.534 36.4658 173.244 35.7285C173.962 34.9818 174.844 34.6085 175.89 34.6085C177.01 34.6085 177.976 35.0378 178.788 35.8965L178.102 36.6245C177.43 35.9152 176.688 35.5605 175.876 35.5605C175.148 35.5605 174.532 35.8358 174.028 36.3865C173.533 36.9278 173.286 37.5952 173.286 38.3885C173.286 39.1725 173.538 39.8398 174.042 40.3905C174.555 40.9318 175.19 41.2025 175.946 41.2025C176.72 41.2025 177.448 40.8385 178.13 40.1105L178.844 40.7685C178.004 41.7018 177.019 42.1685 175.89 42.1685ZM182.376 42.0005V35.7145H179.786V34.7625H186.058V35.7145H183.468V42.0005H182.376ZM191.823 42.0005V34.7625H198.095V42.0005H197.017V35.7145H192.901V42.0005H191.823ZM206.511 41.0625C205.783 41.7998 204.882 42.1685 203.809 42.1685C202.735 42.1685 201.839 41.7998 201.121 41.0625C200.411 40.3252 200.057 39.4338 200.057 38.3885C200.057 37.3525 200.416 36.4658 201.135 35.7285C201.863 34.9818 202.763 34.6085 203.837 34.6085C204.91 34.6085 205.806 34.9772 206.525 35.7145C207.243 36.4518 207.603 37.3432 207.603 38.3885C207.603 39.4245 207.239 40.3158 206.511 41.0625ZM203.837 41.2025C204.611 41.2025 205.246 40.9318 205.741 40.3905C206.245 39.8492 206.497 39.1818 206.497 38.3885C206.497 37.6045 206.235 36.9372 205.713 36.3865C205.199 35.8358 204.565 35.5605 203.809 35.5605C203.034 35.5605 202.399 35.8358 201.905 36.3865C201.41 36.9278 201.163 37.5952 201.163 38.3885C201.163 39.1725 201.419 39.8398 201.933 40.3905C202.446 40.9318 203.081 41.2025 203.837 41.2025ZM219.759 41.0625C219.031 41.7998 218.13 42.1685 217.057 42.1685C215.983 42.1685 215.087 41.7998 214.369 41.0625C213.659 40.3252 213.305 39.4338 213.305 38.3885C213.305 37.3525 213.664 36.4658 214.383 35.7285C215.111 34.9818 216.011 34.6085 217.085 34.6085C218.158 34.6085 219.054 34.9772 219.773 35.7145C220.491 36.4518 220.851 37.3432 220.851 38.3885C220.851 39.4245 220.487 40.3158 219.759 41.0625ZM217.085 41.2025C217.859 41.2025 218.494 40.9318 218.989 40.3905C219.493 39.8492 219.745 39.1818 219.745 38.3885C219.745 37.6045 219.483 36.9372 218.961 36.3865C218.447 35.8358 217.813 35.5605 217.057 35.5605C216.282 35.5605 215.647 35.8358 215.153 36.3865C214.658 36.9278 214.411 37.5952 214.411 38.3885C214.411 39.1725 214.667 39.8398 215.181 40.3905C215.694 40.9318 216.329 41.2025 217.085 41.2025ZM226.206 42.1685C225.095 42.1685 224.204 41.8045 223.532 41.0765C222.869 40.3392 222.538 39.3452 222.538 38.0945C222.538 37.6372 222.547 37.2498 222.566 36.9325C222.584 36.6058 222.622 36.2465 222.678 35.8545C222.734 35.4625 222.822 35.1265 222.944 34.8465C223.065 34.5665 223.219 34.2912 223.406 34.0205C223.602 33.7498 223.854 33.5212 224.162 33.3345C224.47 33.1478 224.829 33.0078 225.24 32.9145L229.272 31.9625L229.482 32.8725L225.562 33.8385C224.834 34.0252 224.311 34.3238 223.994 34.7345C223.686 35.1358 223.504 35.6958 223.448 36.4145C224.064 35.3692 225.062 34.8465 226.444 34.8465C227.396 34.8465 228.212 35.2012 228.894 35.9105C229.575 36.6105 229.916 37.4552 229.916 38.4445C229.916 39.4712 229.561 40.3485 228.852 41.0765C228.142 41.8045 227.26 42.1685 226.206 42.1685ZM226.234 41.2025C226.971 41.2025 227.582 40.9412 228.068 40.4185C228.553 39.8865 228.796 39.2378 228.796 38.4725C228.796 37.7165 228.544 37.0725 228.04 36.5405C227.545 36.0085 226.934 35.7425 226.206 35.7425C225.468 35.7425 224.857 36.0085 224.372 36.5405C223.886 37.0632 223.644 37.7072 223.644 38.4725C223.644 39.2285 223.891 39.8725 224.386 40.4045C224.89 40.9365 225.506 41.2025 226.234 41.2025ZM232.988 44.2825C232.465 44.2825 231.952 44.1612 231.448 43.9185L231.812 43.0645C232.157 43.2418 232.535 43.3305 232.946 43.3305C233.273 43.3305 233.548 43.2278 233.772 43.0225C233.996 42.8265 234.215 42.4765 234.43 41.9725L231.14 34.7625H232.33L234.962 40.7965L237.286 34.7625H238.434L235.396 42.2385C235.088 42.9758 234.747 43.4985 234.374 43.8065C234.001 44.1238 233.539 44.2825 232.988 44.2825ZM244.732 42.0005V39.0185C244.442 39.1865 244.064 39.3405 243.598 39.4805C243.131 39.6112 242.702 39.6765 242.31 39.6765C241.582 39.6765 240.998 39.4898 240.56 39.1165C240.13 38.7432 239.916 38.2065 239.916 37.5065V34.7625H240.994V37.3525C240.994 37.7818 241.12 38.1225 241.372 38.3745C241.633 38.6172 241.992 38.7385 242.45 38.7385C243.308 38.7385 244.069 38.5098 244.732 38.0525V34.7625H245.81V42.0005H244.732ZM251.384 42.1685C250.366 42.1685 249.508 41.8185 248.808 41.1185C248.117 40.4092 247.772 39.4992 247.772 38.3885C247.772 37.3338 248.103 36.4425 248.766 35.7145C249.428 34.9772 250.254 34.6085 251.244 34.6085C252.28 34.6085 253.101 34.9725 253.708 35.7005C254.314 36.4285 254.618 37.3432 254.618 38.4445C254.618 38.5845 254.613 38.7105 254.604 38.8225H248.864C248.938 39.5598 249.214 40.1478 249.69 40.5865C250.175 41.0158 250.749 41.2305 251.412 41.2305C252.28 41.2305 253.04 40.8898 253.694 40.2085L254.366 40.8105C253.554 41.7158 252.56 42.1685 251.384 42.1685ZM248.864 37.9545H253.526C253.46 37.2545 253.227 36.6758 252.826 36.2185C252.434 35.7518 251.897 35.5185 251.216 35.5185C250.6 35.5185 250.072 35.7472 249.634 36.2045C249.195 36.6618 248.938 37.2452 248.864 37.9545ZM256.505 42.0005V34.7625H257.583V37.8845H261.755V34.7625H262.833V42.0005H261.755V38.8365H257.583V42.0005H256.505ZM265.241 42.0005V34.7625H266.319V40.4885L270.617 34.7625H271.667V42.0005H270.589V36.2745L266.277 42.0005H265.241ZM280.289 42.1685C279.3 42.1685 278.488 41.8512 277.853 41.2165C277.218 40.5818 276.854 39.7838 276.761 38.8225H275.151V42.0005H274.073V34.7625H275.151V37.9125H276.761C276.873 36.9698 277.246 36.1858 277.881 35.5605C278.525 34.9258 279.337 34.6085 280.317 34.6085C281.381 34.6085 282.24 34.9725 282.893 35.7005C283.556 36.4285 283.887 37.3245 283.887 38.3885C283.887 39.4338 283.556 40.3252 282.893 41.0625C282.23 41.7998 281.362 42.1685 280.289 42.1685ZM280.317 41.2025C281.073 41.2025 281.67 40.9365 282.109 40.4045C282.548 39.8632 282.767 39.1912 282.767 38.3885C282.767 37.5858 282.538 36.9185 282.081 36.3865C281.624 35.8452 281.026 35.5745 280.289 35.5745C279.542 35.5745 278.95 35.8452 278.511 36.3865C278.072 36.9185 277.853 37.5858 277.853 38.3885C277.853 39.1912 278.077 39.8632 278.525 40.4045C278.982 40.9365 279.58 41.2025 280.317 41.2025ZM102.204 62.0005V54.7625H105.704C106.423 54.7625 106.997 54.9258 107.426 55.2525C107.855 55.5792 108.07 56.0178 108.07 56.5685C108.07 57.3432 107.669 57.8985 106.866 58.2345C107.93 58.5238 108.462 59.1212 108.462 60.0265C108.462 60.6332 108.224 61.1138 107.748 61.4685C107.272 61.8232 106.633 62.0005 105.83 62.0005H102.204ZM103.282 61.0765H105.69C106.203 61.0765 106.609 60.9692 106.908 60.7545C107.207 60.5398 107.356 60.2412 107.356 59.8585C107.356 59.5038 107.197 59.2285 106.88 59.0325C106.572 58.8365 106.129 58.7385 105.55 58.7385H103.282V61.0765ZM103.282 57.8705H105.508C105.956 57.8705 106.311 57.7725 106.572 57.5765C106.843 57.3712 106.978 57.0818 106.978 56.7085C106.978 56.4005 106.852 56.1532 106.6 55.9665C106.348 55.7798 105.993 55.6865 105.536 55.6865H103.282V57.8705ZM114.786 62.0005V52.2005H118.958C120.106 52.2005 120.96 52.4898 121.52 53.0685C121.94 53.5072 122.15 54.0392 122.15 54.6645C122.15 55.7285 121.632 56.4845 120.596 56.9325C121.996 57.3525 122.696 58.1505 122.696 59.3265C122.696 60.1572 122.374 60.8105 121.73 61.2865C121.086 61.7625 120.223 62.0005 119.14 62.0005H114.786ZM115.878 61.0065H119.168C119.915 61.0065 120.503 60.8525 120.932 60.5445C121.362 60.2272 121.576 59.7885 121.576 59.2285C121.576 58.6872 121.352 58.2718 120.904 57.9825C120.466 57.6932 119.822 57.5485 118.972 57.5485H115.878V61.0065ZM115.878 56.5685H118.776C119.458 56.5685 120.004 56.4145 120.414 56.1065C120.825 55.7985 121.03 55.3598 121.03 54.7905C121.03 54.2958 120.839 53.9085 120.456 53.6285C120.083 53.3392 119.551 53.1945 118.86 53.1945H115.878V56.5685ZM127.872 62.1685C126.855 62.1685 125.996 61.8185 125.296 61.1185C124.605 60.4092 124.26 59.4992 124.26 58.3885C124.26 57.3338 124.591 56.4425 125.254 55.7145C125.917 54.9772 126.743 54.6085 127.732 54.6085C128.768 54.6085 129.589 54.9725 130.196 55.7005C130.803 56.4285 131.106 57.3432 131.106 58.4445C131.106 58.5845 131.101 58.7105 131.092 58.8225H125.352C125.427 59.5598 125.702 60.1478 126.178 60.5865C126.663 61.0158 127.237 61.2305 127.9 61.2305C128.768 61.2305 129.529 60.8898 130.182 60.2085L130.854 60.8105C130.042 61.7158 129.048 62.1685 127.872 62.1685ZM125.352 57.9545H130.014C129.949 57.2545 129.715 56.6758 129.314 56.2185C128.922 55.7518 128.385 55.5185 127.704 55.5185C127.088 55.5185 126.561 55.7472 126.122 56.2045C125.683 56.6618 125.427 57.2452 125.352 57.9545ZM132.643 62.1125C132.363 62.1125 132.074 62.0752 131.775 62.0005L131.901 61.0765C132.116 61.1418 132.288 61.1745 132.419 61.1745C132.624 61.1745 132.792 61.1512 132.923 61.1045C133.054 61.0485 133.194 60.9132 133.343 60.6985C133.502 60.4745 133.623 60.1618 133.707 59.7605C133.791 59.3592 133.861 58.7898 133.917 58.0525C133.982 57.3152 134.015 56.4192 134.015 55.3645V54.7625H139.139V62.0005H138.061V55.7145H135.037V55.8825C135.037 56.9838 134.995 57.9218 134.911 58.6965C134.827 59.4712 134.72 60.0778 134.589 60.5165C134.468 60.9552 134.295 61.2958 134.071 61.5385C133.847 61.7812 133.628 61.9352 133.413 62.0005C133.208 62.0752 132.951 62.1125 132.643 62.1125ZM141.552 62.0005V54.7625H142.63V60.4885L146.928 54.7625H147.978V62.0005H146.9V56.2745L142.588 62.0005H141.552ZM150.384 62.0005V54.7625H151.462V58.9345L155.424 54.7625H156.754L153.73 57.8985L156.838 62.0005H155.564L152.988 58.6825L151.462 60.2505V62.0005H150.384ZM164.333 61.0625C163.605 61.7998 162.704 62.1685 161.631 62.1685C160.558 62.1685 159.662 61.7998 158.943 61.0625C158.234 60.3252 157.879 59.4338 157.879 58.3885C157.879 57.3525 158.238 56.4658 158.957 55.7285C159.685 54.9818 160.586 54.6085 161.659 54.6085C162.732 54.6085 163.628 54.9772 164.347 55.7145C165.066 56.4518 165.425 57.3432 165.425 58.3885C165.425 59.4245 165.061 60.3158 164.333 61.0625ZM161.659 61.2025C162.434 61.2025 163.068 60.9318 163.563 60.3905C164.067 59.8492 164.319 59.1818 164.319 58.3885C164.319 57.6045 164.058 56.9372 163.535 56.3865C163.022 55.8358 162.387 55.5605 161.631 55.5605C160.856 55.5605 160.222 55.8358 159.727 56.3865C159.232 56.9278 158.985 57.5952 158.985 58.3885C158.985 59.1725 159.242 59.8398 159.755 60.3905C160.268 60.9318 160.903 61.2025 161.659 61.2025ZM170.78 62.1685C169.669 62.1685 168.778 61.8045 168.106 61.0765C167.443 60.3392 167.112 59.3452 167.112 58.0945C167.112 57.6372 167.121 57.2498 167.14 56.9325C167.158 56.6058 167.196 56.2465 167.252 55.8545C167.308 55.4625 167.396 55.1265 167.518 54.8465C167.639 54.5665 167.793 54.2912 167.98 54.0205C168.176 53.7498 168.428 53.5212 168.736 53.3345C169.044 53.1478 169.403 53.0078 169.814 52.9145L173.846 51.9625L174.056 52.8725L170.136 53.8385C169.408 54.0252 168.885 54.3238 168.568 54.7345C168.26 55.1358 168.078 55.6958 168.022 56.4145C168.638 55.3692 169.636 54.8465 171.018 54.8465C171.97 54.8465 172.786 55.2012 173.468 55.9105C174.149 56.6105 174.49 57.4552 174.49 58.4445C174.49 59.4712 174.135 60.3485 173.426 61.0765C172.716 61.8045 171.834 62.1685 170.78 62.1685ZM170.808 61.2025C171.545 61.2025 172.156 60.9412 172.642 60.4185C173.127 59.8865 173.37 59.2378 173.37 58.4725C173.37 57.7165 173.118 57.0725 172.614 56.5405C172.119 56.0085 171.508 55.7425 170.78 55.7425C170.042 55.7425 169.431 56.0085 168.946 56.5405C168.46 57.0632 168.218 57.7072 168.218 58.4725C168.218 59.2285 168.465 59.8725 168.96 60.4045C169.464 60.9365 170.08 61.2025 170.808 61.2025ZM176.442 64.2405V54.7625H177.52V56.2185C178.248 55.1452 179.172 54.6085 180.292 54.6085C181.216 54.6085 182.024 54.9538 182.714 55.6445C183.405 56.3258 183.75 57.2405 183.75 58.3885C183.75 59.5178 183.405 60.4278 182.714 61.1185C182.024 61.8092 181.216 62.1545 180.292 62.1545C179.154 62.1545 178.23 61.6412 177.52 60.6145V64.2405H176.442ZM180.096 61.1885C180.824 61.1885 181.431 60.9365 181.916 60.4325C182.402 59.9192 182.644 59.2332 182.644 58.3745C182.644 57.5438 182.397 56.8718 181.902 56.3585C181.408 55.8358 180.806 55.5745 180.096 55.5745C179.396 55.5745 178.785 55.8405 178.262 56.3725C177.74 56.9045 177.478 57.5765 177.478 58.3885C177.478 59.2005 177.74 59.8725 178.262 60.4045C178.785 60.9272 179.396 61.1885 180.096 61.1885ZM185.739 62.0005V54.7625H186.817V60.4885L191.115 54.7625H192.165V62.0005H191.087V56.2745L186.775 62.0005H185.739ZM196.321 62.0005V55.7145H193.731V54.7625H200.003V55.7145H197.413V62.0005H196.321ZM203.727 62.1545C202.99 62.1545 202.355 61.9538 201.823 61.5525C201.291 61.1512 201.025 60.5912 201.025 59.8725C201.025 59.1165 201.305 58.5332 201.865 58.1225C202.425 57.7118 203.177 57.5065 204.119 57.5065C204.866 57.5065 205.603 57.6092 206.331 57.8145V57.5905C206.331 56.9558 206.145 56.4705 205.771 56.1345C205.398 55.7985 204.871 55.6305 204.189 55.6305C203.48 55.6305 202.747 55.8032 201.991 56.1485L201.669 55.2665C202.565 54.8558 203.443 54.6505 204.301 54.6505C205.328 54.6505 206.107 54.9165 206.639 55.4485C207.143 55.9525 207.395 56.6618 207.395 57.5765V62.0005H206.331V60.9225C205.687 61.7438 204.819 62.1545 203.727 62.1545ZM203.937 61.2865C204.609 61.2865 205.179 61.1045 205.645 60.7405C206.112 60.3765 206.345 59.9098 206.345 59.3405V58.6685C205.636 58.4632 204.931 58.3605 204.231 58.3605C203.569 58.3605 203.051 58.4958 202.677 58.7665C202.304 59.0278 202.117 59.3872 202.117 59.8445C202.117 60.2832 202.29 60.6332 202.635 60.8945C202.99 61.1558 203.424 61.2865 203.937 61.2865ZM209.679 62.0005V54.7625H210.757V57.8845H214.929V54.7625H216.007V62.0005H214.929V58.8365H210.757V62.0005H209.679ZM218.415 62.0005V54.7625H219.493V60.4885L223.791 54.7625H224.841V62.0005H223.763V56.2745L219.451 62.0005H218.415ZM227.247 62.0005V54.7625H228.325V60.4885L232.623 54.7625H233.673V62.0005H232.595V56.2745L228.283 62.0005H227.247Z" fill="#7A7A7A"/>
</svg>
